<svg width="32" height="20" fill="none" xmlns="http://www.w3.org/2000/svg"><path fill-rule="evenodd" clip-rule="evenodd" d="M16.008 16.775a9.452 9.452 0 006.417 2.498c5.292 0 9.575-4.317 9.575-9.628C32 4.318 27.717 0 22.425 0c-2.464 0-4.73.943-6.417 2.498a9.67 9.67 0 00-3.158 7.147 9.607 9.607 0 003.158 7.13z" fill="#E9B040"/><path fill-rule="evenodd" clip-rule="evenodd" d="M30.727 15.005c0-.166.132-.298.298-.298.181 0 .314.132.314.298a.304.304 0 01-.314.314c-.166 0-.298-.132-.298-.314zm.298.248a.254.254 0 00.247-.248c0-.132-.115-.232-.247-.232-.116 0-.232.1-.232.232s.116.248.232.248zm-.033-.1h-.067v-.28h.116c.017 0 .05 0 .066.016.033.017.033.033.033.066 0 .034-.016.067-.05.067l.067.132h-.083l-.033-.116h-.05v.116-.166h.067c.016 0 .016-.016.016-.033s0-.017-.016-.033h-.066v.232z" fill="#E9B040"/><path fill-rule="evenodd" clip-rule="evenodd" d="M19.1 8.62c-.032-.348-.098-.679-.165-1.026h-5.854c.066-.348.166-.679.265-1.01h5.308c-.115-.348-.247-.69-.396-1.025h-4.499c.166-.35.348-.693.546-1.026h3.39a8.696 8.696 0 00-.727-1.01h-1.935c.3-.365.625-.708.976-1.025C14.305.96 12.056 0 9.575 0 4.3 0 0 4.318 0 9.645c0 5.31 4.3 9.628 9.575 9.628 2.481 0 4.73-.943 6.434-2.498a9.24 9.24 0 00.959-1.009h-1.935a11.42 11.42 0 01-.728-1.026h3.39c.214-.327.402-.67.563-1.026h-4.499a10.76 10.76 0 01-.413-1.009h5.308a10.053 10.053 0 00.447-2.051 10.38 10.38 0 000-2.034z" fill="#CC2131"/><path fill-rule="evenodd" clip-rule="evenodd" d="M30.727 11.878c0-.181.132-.313.298-.313.181 0 .314.132.314.313a.314.314 0 01-.314.315c-.166 0-.298-.15-.298-.315zm.298.232c.132 0 .247-.1.247-.232s-.115-.231-.247-.231c-.116 0-.232.1-.232.231 0 .133.116.232.232.232zm-.033-.1h-.067v-.264h.182c.033.017.033.05.033.083 0 .016-.016.05-.05.066l.067.116h-.083l-.033-.1h-.05v.1-.15h.034c.016 0 .033 0 .033-.016.016 0 .016-.016.016-.033 0 0 0-.016-.016-.016 0-.017-.017 0-.033 0h-.033v.215z" fill="#fff"/><path fill-rule="evenodd" clip-rule="evenodd" d="M12.75 12.424c-.314.082-.545.132-.777.132-.496 0-.794-.314-.794-.877 0-.115.017-.231.033-.364l.067-.38.05-.314.446-2.713h.992l-.116.596h.629l-.15.992h-.628l-.264 1.621c-.017.083-.017.132-.017.165 0 .216.1.298.348.298a1.8 1.8 0 00.314-.033l-.132.877zm3.209-.033a3.89 3.89 0 01-1.059.149c-1.124 0-1.77-.596-1.77-1.77 0-1.373.762-2.366 1.82-2.366.843 0 1.389.563 1.389 1.439 0 .298-.033.58-.116.976h-2.067c-.016.066-.016.1-.016.133 0 .463.314.694.91.694.38 0 .71-.082 1.074-.248l-.165.993zm-.612-2.366v-.198c0-.331-.182-.513-.496-.513-.331 0-.563.248-.662.711h1.158zM4.812 12.473H3.787l.595-3.755-1.34 3.755h-.71l-.083-3.738-.628 3.738H.61l.811-4.88h1.505l.033 3.011 1.009-3.01h1.654l-.81 4.88zm2.498-1.77c-.1-.016-.133-.016-.199-.016-.595 0-.893.231-.893.595 0 .249.15.414.38.414.497 0 .695-.414.712-.992zm.827 1.77h-.893l.016-.413c-.232.314-.546.48-1.091.48-.497 0-.927-.447-.927-1.092 0-.182.034-.347.083-.513.165-.612.777-.992 1.72-1.01.116 0 .298 0 .463.018.033-.133.033-.183.033-.265 0-.265-.215-.348-.695-.348-.297 0-.628.05-.86.133l-.148.033-.066.016.148-.893c.48-.149.827-.215 1.208-.215.893 0 1.372.414 1.372 1.174 0 .199.017.348-.05.778l-.23 1.423-.034.248-.016.198-.017.133-.016.115zm12.816-3.937c.298 0 .563.083.927.265l.181-1.059c-.099-.05-.132-.05-.264-.099l-.413-.116a2.035 2.035 0 00-.48-.05c-.513 0-.81.017-1.125.2-.165.115-.38.264-.612.528l-.132-.033-1.059.745.05-.414h-1.091l-.645 3.97h1.042l.38-2.134s.15-.298.215-.396c.199-.249.364-.249.579-.249h.083a5.334 5.334 0 00-.05.761c0 1.29.727 2.101 1.852 2.101.281 0 .53-.033.91-.132l.182-1.125c-.33.182-.628.264-.877.264-.611 0-.976-.463-.976-1.19 0-1.076.546-1.837 1.323-1.837zm8.782-.942l-.232 1.39c-.248-.381-.546-.563-.943-.563-.545 0-1.058.314-1.372.91v-.017l-.662-.397.066-.414h-1.108l-.628 3.97h1.025l.348-2.133s.264-.298.33-.397a.646.646 0 01.463-.249 3.599 3.599 0 00-.181 1.175c0 .992.512 1.654 1.273 1.654.38 0 .678-.132.959-.447l-.05.397H30l.794-4.88h-1.058zM28.46 11.53c-.347 0-.529-.265-.529-.778 0-.778.33-1.34.81-1.34.364 0 .546.281.546.778 0 .794-.33 1.34-.827 1.34zm-4.779-.828c-.1-.016-.132-.016-.198-.016-.596 0-.894.231-.894.595 0 .249.15.414.38.414.497 0 .696-.414.712-.992zm.827 1.77h-.91l.033-.413c-.231.314-.546.48-1.091.48-.513 0-.96-.43-.96-1.092 0-.943.712-1.522 1.836-1.522.116 0 .298 0 .447.017.033-.133.05-.182.05-.265 0-.265-.215-.347-.711-.347-.282 0-.629.05-.86.132l-.133.033-.066.016.149-.893c.48-.149.827-.215 1.207-.215.893 0 1.356.414 1.356 1.175 0 .198.033.347-.05.777l-.214 1.423-.033.248-.033.199-.017.132v.115zM10.303 9.347c.198 0 .48.016.777.066l.15-.926c-.299-.033-.696-.083-.927-.083-1.158 0-1.538.629-1.538 1.356 0 .48.215.828.777 1.092.414.199.48.232.48.414 0 .248-.215.397-.612.397a2.77 2.77 0 01-.943-.166l-.116.91.017.017.198.033c.067.016.15.033.265.05.248.016.463.032.595.032 1.158 0 1.638-.446 1.638-1.323 0-.546-.265-.877-.778-1.108-.446-.199-.496-.232-.496-.414 0-.182.199-.347.513-.347z" fill="#1B3771"/><path fill-rule="evenodd" clip-rule="evenodd" d="M22.343 7.428l-.183 1.058c-.363-.182-.628-.264-.926-.264-.777 0-1.323.76-1.323 1.836 0 .744.364 1.19.976 1.19.248 0 .546-.082.877-.247l-.182 1.108c-.38.1-.629.15-.91.15-1.124 0-1.82-.812-1.82-2.118 0-1.737.96-2.961 2.333-2.961a2 2 0 01.48.05l.413.099c.132.05.165.066.265.099zm-3.341.728h-.1c-.347 0-.545.165-.86.645l.1-.612h-.943l-.645 3.97h1.043c.38-2.432.479-2.846.975-2.846h.066c.1-.48.232-.827.397-1.141l-.033-.016zm-5.987 3.953c-.28.1-.512.132-.744.132-.529 0-.827-.297-.827-.876 0-.1.017-.232.033-.348l.066-.397.05-.314.447-2.713h1.025l-.116.596h.53l-.133.976h-.53l-.28 1.654c-.017.066-.017.116-.017.165 0 .2.1.282.347.282.116 0 .215 0 .282-.033l-.133.876zM9.03 9.446c0 .496.231.843.777 1.108.43.199.496.265.496.43 0 .248-.182.364-.595.364a3.09 3.09 0 01-.926-.149l-.15.91.05.017.182.033c.066.016.15.033.281.033.232.033.43.033.563.033 1.091 0 1.604-.414 1.604-1.323 0-.546-.215-.86-.728-1.109-.446-.198-.496-.248-.496-.43 0-.215.182-.314.513-.314.198 0 .48.017.744.05l.149-.91a5.988 5.988 0 00-.91-.083c-1.157 0-1.57.612-1.554 1.34zm21.234 2.713h-.976l.05-.38c-.281.297-.579.43-.96.43-.76 0-1.256-.646-1.256-1.638 0-1.324.777-2.448 1.686-2.448.414 0 .712.182.993.545l.232-1.389h1.025l-.794 4.88zm-1.521-.927c.48 0 .81-.562.81-1.34 0-.512-.182-.777-.546-.777-.463 0-.81.546-.81 1.323 0 .53.182.794.546.794zm-12.552.844a3.389 3.389 0 01-1.075.165c-1.158 0-1.754-.611-1.754-1.786 0-1.356.761-2.366 1.803-2.366.86 0 1.406.563 1.406 1.44 0 .297-.034.579-.133.992h-2.05c-.017.05-.017.083-.017.116 0 .463.315.695.91.695.38 0 .71-.066 1.075-.248l-.166.992zm-.58-2.366v-.198c0-.33-.181-.513-.495-.513-.331 0-.563.248-.662.711h1.158zM5.078 12.16H4.052l.595-3.755-1.34 3.755h-.71l-.083-3.722-.629 3.722H.926l.81-4.88h1.489l.05 3.027.992-3.027h1.62l-.81 4.88zm2.564-1.77c-.1 0-.15-.017-.232-.017-.579 0-.877.215-.877.612 0 .248.133.397.364.397.43 0 .728-.397.745-.992zm.76 1.77h-.86l.017-.414c-.265.33-.612.48-1.092.48-.562 0-.943-.43-.943-1.075 0-.976.662-1.538 1.82-1.538.115 0 .264.016.43.032.033-.132.033-.181.033-.248 0-.264-.182-.363-.662-.363a3.41 3.41 0 00-.86.099l-.149.05-.1.016.15-.893c.513-.15.86-.199 1.24-.199.893 0 1.373.397 1.373 1.158 0 .199-.017.348-.083.794l-.231 1.406-.034.248-.016.199-.017.149-.016.099zm15.612-1.77c-.116 0-.165-.017-.231-.017-.596 0-.894.215-.894.612 0 .248.15.397.38.397.414 0 .728-.397.745-.992zm.76 1.77h-.86l.017-.414c-.264.33-.612.48-1.091.48-.563 0-.943-.43-.943-1.075 0-.976.661-1.538 1.819-1.538.116 0 .265.016.414.032.033-.132.05-.181.05-.248 0-.264-.183-.363-.662-.363-.298 0-.645.033-.877.099l-.132.05-.1.016.15-.893c.512-.15.86-.199 1.24-.199.893 0 1.356.397 1.356 1.158 0 .199 0 .348-.082.794l-.216 1.406-.033.248-.033.199-.016.149v.099zm2.779-4.003h-.1c-.346 0-.545.165-.86.645l.1-.612h-.943l-.628 3.97h1.025c.38-2.432.48-2.846.976-2.846h.066c.1-.48.232-.827.397-1.141l-.033-.016z" fill="#fff"/></svg>