<svg width="48" height="14" fill="none" xmlns="http://www.w3.org/2000/svg"><path d="M34.345 6.246v7.157h4.028v-4.24h4.565a4.466 4.466 0 004.17-2.917H34.344z" fill="#37A72E"/><path d="M33.808.349c.235 2.922 3.04 5.235 6.465 5.235h7.002a4.18 4.18 0 00.08-.828c0-2.426-1.98-4.387-4.43-4.407h-9.117z" fill="url(#paint0_linear)"/><path d="M27.846 5.511v-.006.006a.241.241 0 01.215-.126c.134 0 .235.106.242.232v7.721h4.028V.348h-4.028c-.51.02-1.088.385-1.303.842l-3.202 6.787c-.006.026-.02.053-.033.08a.27.27 0 01-.49-.153V.349h-4.028v12.989h4.028c.503-.026 1.067-.391 1.282-.842l3.29-6.965c-.007-.007 0-.013 0-.02zm-15.037.224l-2.357 7.602h-2.9l-2.35-7.608a.26.26 0 00-.261-.212.26.26 0 00-.262.258v7.555H.65V.34h4.484c.739 0 1.518.57 1.732 1.267l1.96 6.329c.101.318.256.311.356 0l1.96-6.33c.216-.702.994-1.265 1.733-1.265h4.484v12.99h-4.028V5.77a.26.26 0 00-.262-.259.272.272 0 00-.261.225z" fill="#37A72E"/><defs><linearGradient id="paint0_linear" x1="33.809" y1="2.966" x2="47.354" y2="2.966" gradientUnits="userSpaceOnUse"><stop stop-color="#00A0E5"/><stop offset="1" stop-color="#0077C3"/></linearGradient></defs></svg>