<svg width="20" height="20" fill="none" xmlns="http://www.w3.org/2000/svg"><path d="M13.415 1.06L6.4 5.07 3.304 3.3a6.98 6.98 0 00-.532.616L6.4 5.995l7.904-4.524a8.12 8.12 0 00-.889-.411zm2.117 1.187L6.4 7.471 2.047 4.98a7.64 7.64 0 00-.371.705L6.4 8.396l9.788-5.6a9.718 9.718 0 00-.656-.549zM17.1 3.752L6.4 9.872 1.208 6.895c-.084.26-.152.528-.208.8l5.4 3.1 11.184-6.4a9.331 9.331 0 00-.484-.644zm1.186 1.847L6.4 12.4.819 9.2c-.007.134-.02.266-.02.4a9.2 9.2 0 009.2 9.2 9.2 9.2 0 008.287-13.2z" fill="#2C9E37"/></svg>