<svg width="48" height="16" fill="none" xmlns="http://www.w3.org/2000/svg"><path d="M17.6 14.895L20.038 1.18h3.81l-2.362 13.714H17.6z" fill="#3C58BF"/><path d="M17.6 14.895L20.724 1.18h3.124l-2.362 13.714H17.6z" fill="#293688"/><path d="M35.276 1.333c-.762-.305-1.98-.61-3.505-.61-3.809 0-6.552 1.905-6.552 4.648 0 2.057 1.905 3.124 3.429 3.81 1.524.685 1.98 1.143 1.98 1.752 0 .914-1.218 1.372-2.285 1.372-1.524 0-2.362-.229-3.657-.762l-.534-.229-.533 3.124c.914.38 2.59.762 4.343.762 4.038 0 6.705-1.905 6.705-4.8 0-1.6-.99-2.82-3.276-3.81-1.372-.685-2.21-1.066-2.21-1.752 0-.61.686-1.22 2.21-1.22 1.295 0 2.21.23 2.895.534l.38.153.61-2.972z" fill="#3C58BF"/><path d="M35.276 1.333c-.762-.305-1.98-.61-3.505-.61-3.809 0-5.866 1.905-5.866 4.648 0 2.057 1.219 3.124 2.743 3.81 1.524.685 1.98 1.143 1.98 1.752 0 .914-1.218 1.372-2.285 1.372-1.524 0-2.362-.229-3.657-.762l-.534-.229-.533 3.124c.914.38 2.59.762 4.343.762 4.038 0 6.705-1.905 6.705-4.8 0-1.6-.99-2.82-3.276-3.81-1.372-.685-2.21-1.066-2.21-1.752 0-.61.686-1.22 2.21-1.22 1.295 0 2.21.23 2.895.534l.38.153.61-2.972z" fill="#293688"/><path d="M41.828 1.18c-.914 0-1.6.077-1.98.991l-5.715 12.724h4.115l.762-2.286h4.876l.457 2.286H48L44.8 1.18h-2.971zm-1.752 9.143c.229-.685 1.524-4.038 1.524-4.038s.305-.838.533-1.371l.229 1.295s.762 3.429.914 4.19h-3.2v-.075z" fill="#3C58BF"/><path d="M42.743 1.18c-.915 0-1.6.077-1.981.991l-6.629 12.724h4.115l.762-2.286h4.876l.457 2.286H48L44.8 1.18h-2.057zm-2.667 9.143c.305-.761 1.524-4.038 1.524-4.038s.305-.838.533-1.371l.229 1.295s.762 3.429.914 4.19h-3.2v-.075z" fill="#293688"/><path d="M10.59 10.78l-.38-1.98C9.523 6.514 7.313 4 4.875 2.78l3.429 12.191h4.114L18.59 1.257h-4.114L10.59 10.78z" fill="#3C58BF"/><path d="M10.59 10.78l-.38-1.98C9.523 6.514 7.313 4 4.875 2.78l3.429 12.191h4.114L18.59 1.257h-3.352L10.59 10.78z" fill="#293688"/><path d="M0 1.18l.686.153C5.562 2.476 8.914 5.371 10.209 8.8L8.84 2.324c-.23-.915-.915-1.143-1.753-1.143H0z" fill="#FFBC00"/><path d="M0 1.18c4.876 1.144 8.914 4.115 10.21 7.544l-1.296-5.41c-.228-.914-.99-1.448-1.828-1.448L0 1.181z" fill="#F7981D"/><path d="M0 1.18c4.876 1.144 8.914 4.115 10.21 7.544l-.915-2.972c-.228-.914-.533-1.828-1.6-2.21L0 1.182z" fill="#ED7C00"/><path d="M14.4 10.324l-2.59-2.59-1.22 2.895-.304-1.905c-.686-2.286-2.895-4.8-5.333-6.019l3.428 12.19h4.114l1.905-4.57zm7.086 4.571l-3.276-3.352-.61 3.352h3.886zm8.762-4.723c.304.305.457.533.38.838 0 .914-1.218 1.371-2.285 1.371-1.524 0-2.362-.228-3.657-.761l-.534-.23-.533 3.125c.914.38 2.59.762 4.343.762 2.438 0 4.419-.686 5.562-1.905l-3.276-3.2zm4.419 4.724h3.58l.763-2.286h4.876l.457 2.286H48l-1.295-5.562-4.571-4.419.228 1.22s.762 3.428.914 4.19h-3.2A376.28 376.28 0 0041.6 6.286s.305-.838.534-1.371" fill="#051244"/></svg>