<svg height="512" width="512" xmlns="http://www.w3.org/2000/svg"><g data-name="filled outline"><path d="M24 24h456v328H24z" fill="#dc651e"/><path d="M488 16H24a8 8 0 00-8 8v336a8 8 0 008 8h464a8 8 0 008-8V24a8 8 0 00-8-8zm-8 144H264V80h216zM392 32h88v32h-88zm-256 0h240v32H136zM32 32h88v32H32zm0 48h216v80H32zm0 96h88v80H32zm0 96h216v80H32zm104-16v-80h240v80zm344 96H264v-80h216zm0-96h-88v-80h88z" fill="#b9b9b9"/><path d="M264 80h216v80H264z" fill="#dc651e"/><g fill="#fd9226"><path d="M392 32h88v32h-88zm0 144h88v80h-88zM112 80h136v80H112zm152 192h216v81H264z"/><path d="M260.595 272H480v80H260.595z"/></g><path d="M128 16v111.637A72.363 72.363 0 00200.363 200H272a80 80 0 0180 80 80 80 0 01-80 80l1.033 7.031-249 .939a8 8 0 01-8.03-8V24a8 8 0 018-8z" fill="#faa6b2"/><path d="M240 360h32v32h-32z" fill="#eaeae8"/><path d="M264 360h8v32h-8z" fill="#cbcbcb"/><path d="M232 392l-5.343 64.111A29.445 29.445 0 00256 488a29.445 29.445 0 0029.343-31.889L280 392z" fill="#b26643"/><path d="M285.44 458.6A29.437 29.437 0 01256 488a28.618 28.618 0 01-5.27-.48 29.441 29.441 0 0024.16-28.92c0-.83-.03-1.66-.1-2.49L269.45 392H280l5.34 64.11c.07.84.1 1.66.1 2.49z" fill="#683b0d"/><path d="M210 304h-34a8 8 0 010-16h34a8 8 0 010 16zm-74 0h-16a8 8 0 010-16h16a8 8 0 010 16zm85-40h-77a8 8 0 010-16h77a8 8 0 010 16zm-117 0H88a8 8 0 010-16h16a8 8 0 010 16z" fill="#d88f9a"/><path d="M256 192a22.2 22.2 0 00-21.06 15.179l-36.514 109.542a32.882 32.882 0 007.943 33.648A32.881 32.881 0 00229.62 360h52.76a32.881 32.881 0 0023.251-9.631 32.882 32.882 0 007.943-33.648L277.06 207.179A22.2 22.2 0 00256 192z" fill="#eaeae8"/><path d="M315.26 327.12A32.879 32.879 0 01282.38 360h-11.26a32.875 32.875 0 0031.19-43.28L265.8 207.18a22.184 22.184 0 00-15.43-14.45A21.951 21.951 0 01256 192a22.187 22.187 0 0121.06 15.18l36.51 109.54a32.773 32.773 0 011.69 10.4z" fill="#cbcbcb"/><path d="M488 16H24a8 8 0 00-8 8v336a8 8 0 008 8h208v16a8 8 0 00-7.973 7.336l-5.342 64.11a37.444 37.444 0 1074.63 0l-5.342-64.11A8 8 0 00280 384v-16h208a8 8 0 008-8V24a8 8 0 00-8-8zM356.674 256a87.982 87.982 0 00-80.062-63.856 30.153 30.153 0 00-41.067-.144h-35.182a64.076 64.076 0 01-42.4-16H376v80zm-35.51 58.191l-34.923-104.767a71.951 71.951 0 0136.892 121.207 41 41 0 00-1.969-16.44zM480 80v80H264V80zm-232 80H144.763A63.951 63.951 0 01136 127.637V80h112zm144 16h88v80h-88zm88-112h-88V32h88zm-104 0H136V32h240zM32 32h88v95.637A80.454 80.454 0 00200.363 208h25.87L212.9 248H144a8 8 0 000 16h63.567l-8 24H176a8 8 0 000 16h18.233l-3.4 10.192A40.622 40.622 0 00197.188 352H32zm180.026 312.712a24.743 24.743 0 01-6.01-25.46l36.514-109.543a14.2 14.2 0 0126.94 0l36.514 109.542a24.744 24.744 0 01-6.01 25.461 25.257 25.257 0 01-3.738 3.08A71.668 71.668 0 01272 352h-42.38a24.718 24.718 0 01-17.594-7.288zm59.755 128.364a21.444 21.444 0 01-37.151-16.3L239.361 400h33.278l4.731 56.774a21.216 21.216 0 01-5.589 16.302zM248 384v-16h16v16zm74.538-32A87.958 87.958 0 00360 280c0-2.687-.132-5.354-.37-8H480v80z"/><path d="M136 288h-16a8 8 0 000 16h16a8 8 0 000-16zm-32-40H88a8 8 0 000 16h16a8 8 0 000-16z"/></g></svg>