<svg height="512" width="512" xmlns="http://www.w3.org/2000/svg"><g data-name="filled outline"><path d="M24 168h464v48H24z" fill="#007af6"/><path d="M320 216h56v32h-56z" fill="#d32b39"/><path d="M383.431 128H368a40 40 0 00-40 40h64v56l32 8v-62.627a41.941 41.941 0 00-12.284-29.657A40 40 0 00383.431 128z" fill="#961b20"/><path d="M328 248v215.539A24.462 24.462 0 00352.461 488a24.462 24.462 0 0024.444-23.521L384 296l48-16v-48l-56-16v32z" fill="#e82f3e"/><rect fill="#2c91ff" height="96" rx="16" width="32" x="264" y="144"/><rect fill="#2c91ff" height="96" rx="16" width="32" x="56" y="144"/><path d="M152 104h48v40h-48z" fill="#007af6"/><path d="M120 48h112v24H120z" fill="#fd7422"/><path d="M160 72h32v32h-32z" fill="#dc651e"/><rect fill="#2c91ff" height="128" rx="54.857" width="109.714" x="120" y="128"/><path d="M178 232h-2a8 8 0 010-16h2a14.015 14.015 0 0014-14v-2a8 8 0 0116 0v2a30.034 30.034 0 01-30 30z" fill="#007af6"/><g fill="#fd9226"><circle cx="118" cy="56" r="18"/><circle cx="238" cy="56" r="18"/><circle cx="178" cy="54" r="18"/></g><path d="M488 160h-56.882a49.57 49.57 0 00-13.745-25.94A47.683 47.683 0 00383.432 120H368a48.069 48.069 0 00-47.321 40H304a24 24 0 00-48 0h-22.606A63.207 63.207 0 00208 129.481V104a8 8 0 00-8-8V80h28.007a26 26 0 10-10.478-40h-17.637a25.969 25.969 0 00-43.784 0h-17.637a25.991 25.991 0 10-10.477 40H152v16a8 8 0 00-8 8v24.127A63.208 63.208 0 00116.321 160H96a24 24 0 00-48 0H24a8 8 0 00-8 8v48a8 8 0 008 8h24a24 24 0 0048 0h20.321a62.832 62.832 0 00117.073 0H256a24 24 0 0048 0h8v24a8 8 0 008 8v207.539a32.461 32.461 0 0064.9 1.276l6.864-162.969 42.766-14.256A8 8 0 00440 280v-48a8 8 0 00-5.8-7.692l-1.079-.308H488a8 8 0 008-8v-48a8 8 0 00-8-8zm-120-24h15.432a31.787 31.787 0 0122.627 9.373 33.716 33.716 0 019.941 24v49.735l-16-4.571V168a8 8 0 00-8-8h-54.988A32.058 32.058 0 01368 136zm-40 104v-16h40v16zM238 46a10 10 0 11-10 10 10.011 10.011 0 0110-10zm-24.735 18H202a25.805 25.805 0 001.919-8H212a25.882 25.882 0 001.265 8zM178 44a10 10 0 11-10 10 10.011 10.011 0 0110-10zm-25.916 12A25.805 25.805 0 00154 64h-11.265A25.882 25.882 0 00144 56zM108 56a10 10 0 1110 10 10.011 10.011 0 01-10-10zm60 24h16v16h-16zm-8 32h32v10.4a62.538 62.538 0 00-32-.606zM32 208v-32h16v32zm48 16a8 8 0 01-16 0v-64a8 8 0 0116 0zm16-16v-32h16.381a63.139 63.139 0 00-.381 6.857v18.286a63.139 63.139 0 00.381 6.857zm78.857 40A46.911 46.911 0 01128 201.143v-18.286a46.857 46.857 0 0193.714 0v18.286A46.911 46.911 0 01174.857 248zm62.476-40a63.139 63.139 0 00.381-6.857v-18.286a63.139 63.139 0 00-.381-6.857H256v32zM288 224a8 8 0 01-16 0v-64a8 8 0 0116 0zm16-48h80v33.965s-7.677-1.951-7.79-1.954L304 208zm120 98.234l-42.53 14.176a8 8 0 00-5.463 7.253l-7.1 168.508a16.462 16.462 0 01-32.907-.632V256h40a8 8 0 008-8v-21.4l40 11.429zM480 208h-48v-32h48z"/><path d="M200 192a8 8 0 00-8 8v2a14.015 14.015 0 01-14 14h-2a8 8 0 000 16h2a30.034 30.034 0 0030-30v-2a8 8 0 00-8-8z"/></g></svg>