<svg height="512" viewBox="0 0 511.992 511.992" width="512" xmlns="http://www.w3.org/2000/svg"><path d="M84.198 324.353h-47.7a8.91 8.91 0 01-8.91-8.91V196.549a8.91 8.91 0 018.91-8.91h47.701v136.714z" fill="#8ebac5"/><path d="M65.226 187.639h18.972v136.714H65.226z" fill="#7ca1b1"/><path d="M99.111 349.947h18.695V162.045H99.111c-8.236 0-14.913 6.677-14.913 14.913v158.077c0 8.235 6.677 14.912 14.913 14.912z" fill="#678d98"/><path d="M99.111 162.045c-.094 0-.184.012-.277.014v187.874c.093.002.183.014.277.014h18.695V162.045z" fill="#537983"/><path d="M249.654 409.985l-131.848-60.038V162.045l131.848-60.038c13.541-6.166 28.924 3.732 28.924 18.611v270.757c.001 14.878-15.383 24.776-28.924 18.61z" fill="#8ebac5"/><path d="M249.654 102.007l-7.44 3.388c4.112 3.669 6.802 9.008 6.802 15.223v270.757c0 6.215-2.689 11.554-6.802 15.223l7.44 3.388c13.541 6.166 28.924-3.732 28.924-18.611V120.618c.001-14.879-15.383-24.777-28.924-18.611z" fill="#7ca1b1"/><path d="M278.579 291.842h10.406c12.808 0 23.19-10.383 23.19-23.19V243.34c0-12.808-10.383-23.19-23.19-23.19h-10.406z" fill="#678d98"/><path d="M288.985 220.149h-10.406v1.641c8.566 3.408 14.624 11.769 14.624 21.549v25.312c0 9.781-6.058 18.141-14.624 21.549v1.641h10.406c12.808 0 23.19-10.383 23.19-23.19V243.34c0-12.808-10.383-23.191-23.19-23.191z" fill="#537983"/><path d="M173.75 269.848h-55.944v-27.704h55.944c7.65 0 13.852 6.202 13.852 13.852s-6.202 13.852-13.852 13.852z" fill="#eaf6ff"/><path d="M173.75 242.144h-18.972c7.65 0 13.852 6.202 13.852 13.852s-6.202 13.852-13.852 13.852h18.972c7.65 0 13.852-6.202 13.852-13.852s-6.202-13.852-13.852-13.852z" fill="#d8ecfe"/><path d="M375.108 206.204l13.384-13.384c4.055-4.055 10.628-4.055 14.683 0l98.284 98.284c4.055 4.055 4.055 10.628 0 14.683l-13.384 13.384c-4.055 4.055-10.628 4.055-14.683 0l-98.284-98.284c-4.055-4.054-4.055-10.628 0-14.683z" fill="#fe5694"/><path d="M501.459 291.104l-98.284-98.284c-4.055-4.055-10.629-4.055-14.683 0l-5.947 5.947a10.379 10.379 0 0110.234 2.629l89.708 89.708c4.055 4.055 4.055 10.629 0 14.683l-4.478 4.478a10.386 10.386 0 01-11.239 2.284l6.622 6.622c4.055 4.055 10.629 4.055 14.683 0l13.384-13.384c4.055-4.054 4.055-10.628 0-14.683z" fill="#fd3581"/><path d="M488.075 192.82l13.384 13.384c4.055 4.055 4.055 10.628 0 14.683l-98.284 98.284c-4.055 4.055-10.628 4.055-14.683 0l-13.384-13.384c-4.055-4.055-4.055-10.628 0-14.683l98.284-98.284c4.055-4.054 10.628-4.054 14.683 0z" fill="#fe5694"/><path d="M501.459 206.204l-13.384-13.384c-4.055-4.055-10.629-4.055-14.683 0l-4.498 4.498a10.344 10.344 0 017.729 3.022l5.864 5.864c4.055 4.055 4.055 10.629 0 14.683l-89.396 89.396c-3.023 3.023-7.446 3.789-11.182 2.304l6.584 6.584c4.055 4.055 10.629 4.055 14.683 0l98.284-98.284c4.054-4.054 4.054-10.628-.001-14.683z" fill="#fd3581"/><path d="M288.984 212.65h-10.405a7.5 7.5 0 00-7.5 7.5v171.225c0 4.491-2.166 8.46-5.942 10.89-3.777 2.43-8.287 2.756-12.375.895l-127.456-58.038v-67.774h48.444c11.773 0 21.352-9.578 21.352-21.352 0-11.773-9.578-21.352-21.352-21.352h-48.444V166.87l127.456-58.038c4.087-1.861 8.596-1.535 12.375.895 3.776 2.43 5.942 6.399 5.942 10.89v64.163c0 4.142 3.357 7.5 7.5 7.5s7.5-3.358 7.5-7.5v-64.163c0-9.55-4.795-18.337-12.826-23.504-8.03-5.167-18.015-5.89-26.707-1.932l-130.367 59.364H99.111c-13.172-.111-23.752 12.079-22.413 25.594h-40.2c-9.048 0-16.41 7.361-16.41 16.41v51.947H7.5a7.5 7.5 0 000 15h12.588v51.947c0 9.048 7.361 16.41 16.41 16.41h40.201c-1.468 12.742 8.741 25.675 22.413 25.594h17.068l130.367 59.364a27.955 27.955 0 0011.599 2.528c5.27 0 10.509-1.501 15.107-4.46 8.031-5.167 12.826-13.954 12.826-23.504v-92.032c17.343 1.482 33.68-12.657 33.596-30.69V243.34c0-16.923-13.768-30.69-30.691-30.69zM173.75 249.644a6.36 6.36 0 016.352 6.352 6.36 6.36 0 01-6.352 6.352h-48.444v-12.703h48.444zM36.498 316.853c-.777 0-1.41-.632-1.41-1.41V196.549c0-.777.632-1.41 1.41-1.41h40.201v121.714zm55.2 18.181V176.958c0-4.087 3.325-7.413 7.413-7.413h11.195v172.903H99.111c-4.088-.001-7.413-3.327-7.413-7.414zm212.977-66.382c.098 9.182-8.833 16.845-18.596 15.69V227.65c8.815-1.229 18.584 5.741 18.596 15.69zm172.282-12.656l29.807-29.807c6.971-6.972 6.971-18.315.002-25.284l-13.39-13.399c-6.97-6.951-18.311-6.952-25.29.007L438.28 217.32l-29.807-29.807c-6.965-6.963-18.305-6.966-25.289.002l-13.37 13.381a17.752 17.752 0 00-5.25 12.65c0 4.782 1.864 9.274 5.242 12.644l29.806 29.807-29.799 29.8a17.748 17.748 0 00-5.249 12.651 17.748 17.748 0 005.24 12.641l13.389 13.398c3.487 3.479 8.063 5.218 12.641 5.218s9.157-1.742 12.64-5.224l57.876-57.876 29.806 29.806a2.885 2.885 0 01-.002 4.076l-13.37 13.381a2.903 2.903 0 01-4.091.007l-10.332-10.332a7.5 7.5 0 00-10.607 10.606l10.34 10.339c3.484 3.475 8.06 5.213 12.638 5.213 4.58 0 9.163-1.741 12.654-5.222l13.378-13.388c6.971-6.971 6.971-18.314 0-25.287zm-79.091 57.877a2.887 2.887 0 01-4.07.002l-13.39-13.399a2.864 2.864 0 01.008-4.066l35.109-35.11a7.5 7.5 0 000-10.606l-35.116-35.117a2.87 2.87 0 01.009-4.069l13.371-13.382a2.89 2.89 0 014.079-.006l35.11 35.11c2.062 2.033 7.308 3.314 10.607 0l35.102-35.103a2.904 2.904 0 014.089-.009l13.382 13.392a2.884 2.884 0 010 4.074z"/></svg>