<svg xmlns="http://www.w3.org/2000/svg" viewBox="0 0 512 326.32"><g transform="translate(0 -92.84)"><path d="M32.331 161.54h466.3v32h-466.3zm0 198.28h466.3v32h-466.3z" fill="#b6c4cf"/><path d="M98.3 110.34v291.31c0 5.53-4.48 10-10 10H17.5c-5.52 0-10-4.47-10-10V110.34c0-5.53 4.48-10 10-10h70.8c5.52 0 10 4.47 10 10zm81.24 6v279.32c0 8.84-7.16 16-16 16h-13.7c-.14 0-.28 0-.41-.01-8.64-.21-15.59-7.29-15.59-15.99V116.34c0-8.84 7.17-16 16-16h13.7c8.84 0 16 7.16 16 16zm65.24 295.32h-13.697c-8.837 0-16-7.163-16-16V116.34c0-8.837 7.163-16 16-16h13.697c8.837 0 16 7.163 16 16v279.32c0 8.836-7.163 16-16 16zm81.24 0h-13.697c-8.837 0-16-7.163-16-16V116.34c0-8.837 7.163-16 16-16h13.697c8.837 0 16 7.163 16 16v279.32c0 8.836-7.163 16-16 16zm81.24 0h-13.697c-8.837 0-16-7.163-16-16V116.34c0-8.837 7.163-16 16-16h13.697c8.837 0 16 7.163 16 16v279.32c0 8.836-7.163 16-16 16zm81.24 0h-13.697c-8.837 0-16-7.163-16-16V116.34c0-8.837 7.163-16 16-16H488.5c8.837 0 16 7.163 16 16v279.32c0 8.836-7.163 16-16 16z" fill="#dff6fd"/><path d="M166.64 410.62c-1.75.67-3.66 1.03-5.65 1.03h-11.56c-8.64-.21-15.59-7.29-15.59-15.99V116.34c0-8.84 7.17-16 16-16h11.15c1.99 0 3.9.37 5.65 1.03-6.05 2.28-10.35 8.13-10.35 14.97v279.31c0 6.85 4.3 12.69 10.35 14.97zm83.79 0c-1.75.67-3.66 1.03-5.65 1.03h-13.7c-8.83 0-16-7.16-16-16V116.34c0-8.84 7.17-16 16-16h13.7c1.99 0 3.9.36 5.65 1.03-6.05 2.28-10.35 8.12-10.35 14.97v279.31c0 6.85 4.3 12.69 10.35 14.97zm81.24 0c-1.75.67-3.66 1.03-5.65 1.03h-13.7c-8.83 0-16-7.16-16-16V116.34c0-8.84 7.17-16 16-16h13.7c1.99 0 3.9.36 5.65 1.03-6.05 2.28-10.35 8.12-10.35 14.97v279.31c0 6.85 4.3 12.69 10.35 14.97zm81.24 0c-1.75.67-3.66 1.03-5.65 1.03h-13.7c-8.83 0-16-7.16-16-16V116.34c0-8.84 7.17-16 16-16h13.7c1.99 0 3.9.36 5.65 1.03-6.05 2.28-10.35 8.12-10.35 14.97v279.31c0 6.85 4.3 12.69 10.35 14.97zm81.24 0c-1.75.67-3.66 1.03-5.65 1.03h-13.7c-8.83 0-16-7.16-16-16V116.34c0-8.84 7.17-16 16-16h13.7c1.99 0 3.9.36 5.65 1.03-6.05 2.28-10.35 8.12-10.35 14.97v279.31c0 6.85 4.3 12.69 10.35 14.97zM32.5 401.66V110.35c0-5.53 4.48-10 10-10h-25c-5.52 0-10 4.47-10 10v291.31c0 5.53 4.48 10 10 10h25c-5.52 0-10-4.47-10-10z" fill="#c8effe"/><path d="M98.3 110.34v109.25c-28.89 12.74-61.91 12.74-90.8 0V110.34c0-5.53 4.48-10 10-10h70.8c5.52 0 10 4.47 10 10z" fill="#c5d3dd"/><path d="M32.5 113.67c0-7.366 4.48-13.321 10-13.321h-25c-5.52 0-10 4.47-10 10v109.25a112.293 112.293 0 0025 7.692z" fill="#b6c4cf"/><circle cx="52.9" cy="137.84" r="12.5" fill="#8d9ca8"/><circle cx="52.9" cy="187.84" r="12.5" fill="#8d9ca8"/><path d="M504.5 326.88a7.5 7.5 0 007.5-7.5V116.34c0-12.958-10.542-23.5-23.5-23.5h-13.7c-12.958 0-23.5 10.542-23.5 23.5v37.69h-20.54v-37.695c0-12.958-10.542-23.5-23.5-23.5h-13.698c-12.958 0-23.5 10.542-23.5 23.5v37.695H349.52v-37.695c0-12.958-10.542-23.5-23.5-23.5h-13.698c-12.958 0-23.5 10.542-23.5 23.5v37.695H268.28v-37.695c0-12.958-10.542-23.5-23.5-23.5h-13.697c-12.958 0-23.5 10.542-23.5 23.5v37.695H187.04v-37.69c0-12.958-10.542-23.5-23.5-23.5h-13.7c-12.958 0-23.5 10.542-23.5 23.5v37.69h-20.539v-43.695c0-9.649-7.851-17.5-17.5-17.5H17.5c-9.649 0-17.5 7.851-17.5 17.5v291.32c0 9.649 7.851 17.5 17.5 17.5h70.801c9.649 0 17.5-7.851 17.5-17.5v-2.345h20.826c1.763 11.226 11.5 19.841 23.214 19.841h13.7c11.713 0 21.451-8.615 23.214-19.841h21.115c1.761 11.228 11.5 19.845 23.214 19.845h13.697c11.715 0 21.453-8.617 23.214-19.845h21.114c1.761 11.228 11.5 19.845 23.214 19.845h13.698c11.715 0 21.453-8.617 23.214-19.845h21.114c1.761 11.228 11.5 19.845 23.214 19.845h13.698c11.715 0 21.453-8.617 23.214-19.845h21.112c1.763 11.226 11.5 19.841 23.214 19.841h13.7c12.958 0 23.5-10.542 23.5-23.5V354.38c0-4.143-3.358-7.5-7.5-7.5s-7.5 3.357-7.5 7.5v41.271c0 4.687-3.813 8.5-8.5 8.5h-13.7c-4.687 0-8.5-3.813-8.5-8.5v-279.31c0-4.687 3.813-8.5 8.5-8.5h13.7c4.687 0 8.5 3.813 8.5 8.5v203.04a7.498 7.498 0 007.499 7.5zm-53.2 25.43h-20.54V201.03h20.54zm-20.54 15h20.54v17h-20.54zm20.54-198.28v17h-20.54v-17zm-81.238 183.28H349.52V201.03h20.542zm-20.541 15h20.542v17h-20.542zm20.541-198.28v17H349.52v-17zm-81.239 183.28H268.28V201.03h20.542v151.28zm-20.543 15h20.542v17H268.28zm20.543-198.28v17H268.28v-17zm-101.78 32h20.543v151.28h-20.543zm0 166.28h20.543v17h-20.543zm20.543-198.28v17h-20.543v-17zm-81.243 0v17h-20.539v-17zm-108.84-61.196h70.801c1.378 0 2.5 1.121 2.5 2.5v104.24c-24.337 9.41-51.464 9.41-75.801 0v-104.24c0-1.379 1.122-2.5 2.5-2.5zm70.801 296.32H17.503a2.503 2.503 0 01-2.5-2.5v-171.15a120.234 120.234 0 0075.801-.001v171.16c0 1.379-1.122 2.5-2.5 2.5zm17.5-36.845h20.539v17h-20.539zm66.239 28.341c0 4.687-3.813 8.5-8.5 8.5h-13.7c-4.687 0-8.5-3.813-8.5-8.5V263.78c0-4.143-3.358-7.5-7.5-7.5s-7.5 3.357-7.5 7.5v88.529h-20.539v-151.28h20.539v27.75c0 4.143 3.358 7.5 7.5 7.5s7.5-3.357 7.5-7.5v-112.44c0-4.687 3.813-8.5 8.5-8.5h13.7c4.687 0 8.5 3.813 8.5 8.5zm81.24.004c0 4.687-3.813 8.5-8.5 8.5h-13.697c-4.687 0-8.5-3.813-8.5-8.5v-279.32c0-4.687 3.813-8.5 8.5-8.5h13.697c4.687 0 8.5 3.813 8.5 8.5zm72.741 8.5h-13.698c-4.687 0-8.5-3.813-8.5-8.5v-279.32c0-4.687 3.813-8.5 8.5-8.5h13.698c4.687 0 8.5 3.813 8.5 8.5V395.65c0 4.686-3.813 8.5-8.5 8.5zm89.739-8.5c0 4.687-3.813 8.5-8.5 8.5h-13.698c-4.687 0-8.5-3.813-8.5-8.5v-279.32c0-4.687 3.813-8.5 8.5-8.5h13.698c4.687 0 8.5 3.813 8.5 8.5z"/><path d="M52.9 157.84c11.028 0 20-8.972 20-20s-8.972-20-20-20-20 8.972-20 20 8.973 20 20 20zm0-25c2.757 0 5 2.243 5 5s-2.243 5-5 5-5-2.243-5-5 2.244-5 5-5zm0 75c11.028 0 20-8.972 20-20s-8.972-20-20-20-20 8.972-20 20 8.973 20 20 20zm0-25c2.757 0 5 2.243 5 5s-2.243 5-5 5-5-2.243-5-5 2.244-5 5-5z"/></g></svg>