<svg height="512" width="512" xmlns="http://www.w3.org/2000/svg"><g data-name="filled outline"><path d="M248 208v224c0 22.091 58.981 40 112 40s112-17.909 112-40V208z" fill="#92d1f7"/><path d="M224 208v224a32 32 0 0032 32 32 32 0 0032-32V208zm32 235a11 11 0 1111-11 11 11 0 01-11 11z" fill="#b9b9b9"/><path d="M224 400v-64h64v64z" fill="#aac16b"/><path d="M278.627 409.373L120.235 250.981l-45.254 45.254 158.392 158.392a32 32 0 0045.254 0 32 32 0 000-45.254zM256 443a11 11 0 1111-11 11 11 0 01-11 11z" fill="#cbcbcb"/><path d="M215.25 345.99l-42.24 48.28-59.53-59.53 48.74-41.78z" fill="#cbcbcb"/><path d="M162.22 292.96l-48.74 41.78 59.53 59.53 42.24-48.28z" fill="#ee9eaa"/><path d="M210.726 432.058l-45.248-45.248 45.248-45.248 45.248 45.248z" fill="#faa6b2"/><path d="M120.217 341.529L74.969 296.28l45.248-45.248 45.248 45.248z" fill="#d88f9a"/><path d="M344 208v104a24 24 0 0024 24 24 24 0 0024-24v-8a16 16 0 0116-16 16 16 0 0116 16v48a24 24 0 0024 24 24 24 0 0024-24V208z" fill="#5ebef7"/><ellipse cx="360" cy="208" fill="#eaeae8" rx="112" ry="40"/><ellipse cx="360" cy="208" fill="#cbcbcb" rx="104" ry="40"/><path d="M256 400H32v64h224a32 32 0 0032-32 32 32 0 00-32-32zm0 43a11 11 0 1111-11 11 11 0 01-11 11z" fill="#eaeae8"/><path d="M96 464H32v-64h64z" fill="#c38325"/><path d="M224 464h-64v-64h64z" fill="#f7ba61"/><path d="M160 464H96v-64h64z" fill="#ea9d2d"/><path d="M224 272h64v64h-64z" fill="#89b140"/><path d="M472 216a8 8 0 01-8-8v-48a104 104 0 00-208 0v48a8 8 0 01-16 0v-48a120 120 0 01240 0v48a8 8 0 01-8 8z" fill="#b9b9b9"/><path d="M224 272v-64h64v64z" fill="#79a73a"/><path d="M32 392a8 8 0 00-8 8v64a8 8 0 008 8h224a39.754 39.754 0 0020.788-5.839C299.732 474.741 331.115 480 360 480c50.309 0 120-16.681 120-48V160a120 120 0 00-240 0v40h-16a8 8 0 00-8 8v127.432l-90.108-90.108a8 8 0 00-11.313 0l-45.255 45.255a8 8 0 000 11.313L159.432 392zm432-136v96a16 16 0 01-32 0v-48a24 24 0 00-48 0v8a16 16 0 01-32 0v-56.139c2.681.086 5.352.139 8 .139 35.423 0 80.452-8.27 104-24.1zm-30.684-27.293C412.437 235.778 385.03 240 360 240a248.109 248.109 0 01-64-8.451V208a8 8 0 00-8-8h-26.646c4.873-4.073 13.172-8.589 25.33-12.707C307.562 180.222 334.97 176 360 176s52.437 4.222 73.316 11.293C454.512 194.472 464 202.866 464 208s-9.488 13.528-30.684 20.707zM280 399.432l-48-48V344h48zM280 328h-48v-48h48zm-30.059 64h-67.882l-5.255-5.255 33.941-33.945zm-84.451-16.568l-33.941-33.942 33.941-33.941 33.942 33.941zM40 456v-48h48v48zm64-48h48v48h-48zm64 48v-48h48v48zm64 0v-48h24a24 24 0 010 48zm201.316-3.293C412.437 459.778 385.03 464 360 464c-24.161 0-50.046-3.869-70.4-10.335A39.756 39.756 0 00296 432V248.1a261.115 261.115 0 0040 6.774V312a32 32 0 0064 0v-8a8 8 0 0116 0v48a31.976 31.976 0 0048 27.7V432c0 5.134-9.488 13.528-30.684 20.707zM360 56a104.118 104.118 0 01104 104v24.1c-23.548-15.83-68.577-24.1-104-24.1s-80.452 8.27-104 24.1V160A104.118 104.118 0 01360 56zM232 216h48v48h-48zM86.294 296.235l33.941-33.941 33.942 33.941-33.942 33.942z"/><circle cx="256" cy="432" r="11"/></g></svg>