<svg height="512" width="512" xmlns="http://www.w3.org/2000/svg"><path d="M471.367 164.883V472.5c0 17.673-14.327 32-32 32H72.633c-17.673 0-32-14.327-32-32V164.883L256 94.475z" fill="#f3f5f9"/><path d="M448.367 157.364V472.5c0 17.673-14.327 32-32 32h23c17.673 0 32-14.327 32-32V164.883z" fill="#cfd7e6"/><path d="M438.233 280.85c0 9.15-7.417 16.568-16.567 16.568h-66.264c-9.15 0-16.568-7.418-16.568-16.568v-66.266c0-9.15 7.418-16.568 16.568-16.568h66.264c9.15 0 16.567 7.418 16.567 16.568z" fill="#f25a3c"/><path d="M421.665 198.017h-23c9.15 0 16.568 7.418 16.568 16.568v66.266c0 9.15-7.418 16.568-16.568 16.568h23c9.15 0 16.568-7.418 16.568-16.568v-66.266c0-9.151-7.418-16.568-16.568-16.568z" fill="#e63a3a"/><path d="M305.7 280.85c0 9.15-7.417 16.568-16.567 16.568h-66.264c-9.15 0-16.568-7.418-16.568-16.568v-66.266c0-9.15 7.418-16.568 16.568-16.568h66.264c9.15 0 16.567 7.418 16.567 16.568z" fill="#8db5ff"/><path d="M289.132 198.017h-23c9.15 0 16.568 7.418 16.568 16.568v66.266c0 9.15-7.418 16.568-16.568 16.568h23c9.15 0 16.568-7.418 16.568-16.568v-66.266c0-9.151-7.418-16.568-16.568-16.568z" fill="#7784ff"/><path d="M173.167 280.85c0 9.15-7.417 16.568-16.568 16.568H90.335c-9.15 0-16.567-7.418-16.567-16.568v-66.266c0-9.15 7.418-16.568 16.567-16.568h66.264c9.15 0 16.568 7.418 16.568 16.568z" fill="#8db5ff"/><path d="M156.599 198.017h-23c9.15 0 16.568 7.418 16.568 16.568v66.266c0 9.15-7.417 16.568-16.568 16.568h23c9.15 0 16.568-7.418 16.568-16.568v-66.266c0-9.151-7.417-16.568-16.568-16.568z" fill="#7784ff"/><path d="M438.233 413.385c0 9.15-7.417 16.568-16.567 16.568h-66.264c-9.15 0-16.568-7.418-16.568-16.568v-66.266c0-9.15 7.418-16.568 16.568-16.568h66.264c9.15 0 16.567 7.418 16.567 16.568z" fill="#68d9c0"/><path d="M421.665 330.551h-23c9.15 0 16.568 7.418 16.568 16.568v66.266c0 9.15-7.418 16.568-16.568 16.568h23c9.15 0 16.568-7.418 16.568-16.568v-66.266c0-9.15-7.418-16.568-16.568-16.568z" fill="#4fc6b9"/><path d="M305.7 413.385c0 9.15-7.417 16.568-16.567 16.568h-66.264c-9.15 0-16.568-7.418-16.568-16.568v-66.266c0-9.15 7.418-16.568 16.568-16.568h66.264c9.15 0 16.567 7.418 16.567 16.568z" fill="#8db5ff"/><path d="M289.132 330.551h-23c9.15 0 16.568 7.418 16.568 16.568v66.266c0 9.15-7.418 16.568-16.568 16.568h23c9.15 0 16.568-7.418 16.568-16.568v-66.266c0-9.15-7.418-16.568-16.568-16.568z" fill="#7784ff"/><path d="M173.167 413.385c0 9.15-7.417 16.568-16.568 16.568H90.335c-9.15 0-16.567-7.418-16.567-16.568v-66.266c0-9.15 7.418-16.568 16.567-16.568h66.264c9.15 0 16.568 7.418 16.568 16.568z" fill="#8db5ff"/><path d="M156.599 330.551h-23c9.15 0 16.568 7.418 16.568 16.568v66.266c0 9.15-7.417 16.568-16.568 16.568h23c9.15 0 16.568-7.418 16.568-16.568v-66.266c0-9.15-7.417-16.568-16.568-16.568z" fill="#7784ff"/><path d="M439.367 7.5H72.633c-17.673 0-32 14.327-32 32v125.383h430.733V39.5c.001-17.673-14.326-32-31.999-32z" fill="#595353"/><path d="M439.367 7.5h-23c17.673 0 32 14.327 32 32v125.383h23V39.5c0-17.673-14.327-32-32-32z" fill="#403939"/><path d="M430.233 131.75H81.767a8 8 0 01-8-8V65.2a8 8 0 018-8h348.467a8 8 0 018 8v58.55a8.001 8.001 0 01-8.001 8z" fill="#68d9c0"/><path d="M430.233 57.2h-23a8 8 0 018 8v58.55a8 8 0 01-8 8h23a8 8 0 008-8V65.2a8 8 0 00-8-8z" fill="#4fc6b9"/><path d="M90.335 304.918H156.6c13.271 0 24.068-10.797 24.068-24.068v-66.266c0-13.27-10.797-24.067-24.068-24.067H90.335c-13.271 0-24.067 10.797-24.067 24.067v66.266c0 13.271 10.796 24.068 24.067 24.068zm-9.067-90.334c0-5 4.067-9.067 9.067-9.067H156.6c5 0 9.068 4.067 9.068 9.067v66.266c0 5-4.068 9.068-9.068 9.068H90.335c-5 0-9.067-4.068-9.067-9.068zm141.6 90.334h66.264c13.271 0 24.067-10.797 24.067-24.068v-66.266c0-13.27-10.797-24.067-24.067-24.067h-66.264c-13.271 0-24.068 10.797-24.068 24.067v66.266c0 13.271 10.797 24.068 24.068 24.068zm-9.068-90.334c0-5 4.068-9.067 9.068-9.067h66.264c5 0 9.067 4.067 9.067 9.067v66.266c0 5-4.067 9.068-9.067 9.068h-66.264c-5 0-9.068-4.068-9.068-9.068zM156.6 437.45c13.271 0 24.068-10.797 24.068-24.067v-66.266c0-13.271-10.797-24.068-24.068-24.068H90.335c-13.271 0-24.067 10.797-24.067 24.068v66.266c0 13.27 10.797 24.067 24.067 24.067zm-75.332-24.067v-66.266c0-5 4.067-9.068 9.067-9.068H156.6c5 0 9.068 4.068 9.068 9.068v66.266c0 5-4.068 9.067-9.068 9.067H90.335c-5 0-9.067-4.067-9.067-9.067zm117.532 0c0 13.27 10.797 24.067 24.068 24.067h66.264c13.271 0 24.067-10.797 24.067-24.067v-66.266c0-13.271-10.797-24.068-24.067-24.068h-66.264c-13.271 0-24.068 10.797-24.068 24.068zm15-66.266c0-5 4.068-9.068 9.068-9.068h66.264c5 0 9.067 4.068 9.067 9.068v66.266c0 5-4.067 9.067-9.067 9.067h-66.264c-5 0-9.068-4.067-9.068-9.067zM66.268 463.083v8.284c0 4.143 3.357 7.5 7.5 7.5s7.5-3.357 7.5-7.5v-8.284c0-4.143-3.357-7.5-7.5-7.5s-7.5 3.357-7.5 7.5zm48.131 0c0-4.143-3.357-7.5-7.5-7.5s-7.5 3.357-7.5 7.5v8.284c0 4.143 3.357 7.5 7.5 7.5s7.5-3.357 7.5-7.5zm18.132 0v8.284c0 4.143 3.357 7.5 7.5 7.5s7.5-3.357 7.5-7.5v-8.284c0-4.143-3.357-7.5-7.5-7.5a7.5 7.5 0 00-7.5 7.5z"/><path d="M106.901 255.219h9.066v9.066c0 4.143 3.357 7.5 7.5 7.5s7.5-3.357 7.5-7.5v-9.066h9.067c4.143 0 7.5-3.357 7.5-7.5s-3.357-7.5-7.5-7.5h-9.067v-9.066c0-4.143-3.357-7.5-7.5-7.5s-7.5 3.357-7.5 7.5v9.066h-9.066a7.5 7.5 0 000 15zm-.451 142.051c1.465 1.464 3.385 2.196 5.304 2.196s3.839-.732 5.304-2.196l6.411-6.411 6.411 6.411c1.465 1.464 3.385 2.196 5.304 2.196s3.839-.732 5.304-2.196a7.5 7.5 0 000-10.607l-6.411-6.411 6.411-6.411a7.5 7.5 0 00-10.607-10.607l-6.411 6.411-6.411-6.411a7.5 7.5 0 00-10.607 10.607l6.411 6.411-6.411 6.411a7.499 7.499 0 00-.002 10.607zm132.983-142.052h33.134c4.143 0 7.5-3.357 7.5-7.5s-3.357-7.5-7.5-7.5h-33.134a7.499 7.499 0 00-7.5 7.5 7.5 7.5 0 007.5 7.5zm115.968 49.7h66.264c13.27 0 24.067-10.797 24.067-24.068v-66.266c0-13.27-10.797-24.067-24.067-24.067h-66.264c-13.271 0-24.067 10.797-24.067 24.067v66.266c0 13.271 10.797 24.068 24.067 24.068zm-9.067-90.334c0-5 4.067-9.067 9.067-9.067h66.264c5 0 9.067 4.067 9.067 9.067v66.266c0 5-4.067 9.068-9.067 9.068h-66.264c-5 0-9.067-4.068-9.067-9.068zm-15 198.799c0 13.27 10.797 24.067 24.067 24.067h66.264c13.27 0 24.067-10.797 24.067-24.067v-66.266c0-13.271-10.797-24.068-24.067-24.068h-66.264c-13.271 0-24.067 10.797-24.067 24.068zm15-66.266c0-5 4.067-9.068 9.067-9.068h66.264c5 0 9.067 4.068 9.067 9.068v66.266c0 5-4.067 9.067-9.067 9.067h-66.264c-5 0-9.067-4.067-9.067-9.067z"/><path d="M371.967 375.326H405.1c4.143 0 7.5-3.357 7.5-7.5s-3.357-7.5-7.5-7.5h-33.133c-4.143 0-7.5 3.357-7.5 7.5s3.357 7.5 7.5 7.5zm0 24.85H405.1c4.143 0 7.5-3.357 7.5-7.5s-3.357-7.5-7.5-7.5h-33.133a7.499 7.499 0 00-7.5 7.5 7.5 7.5 0 007.5 7.5zm-132.534 4.141a7.481 7.481 0 005.304-2.196l33.134-33.133a7.5 7.5 0 00-10.607-10.607l-33.134 33.133a7.5 7.5 0 005.303 12.803zm152.165-132.534c5.398 0 10.268-1.794 14.085-5.192a20.963 20.963 0 002.1-2.165 7.5 7.5 0 00-11.494-9.638c-.184.22-.383.425-.584.605-1.052.936-2.396 1.391-4.106 1.391-4.999 0-9.066-4.067-9.066-9.066 0-5 4.067-9.067 9.066-9.067 1.817 0 3.568.534 5.063 1.545a7.502 7.502 0 008.398-12.43 23.962 23.962 0 00-13.462-4.115c-13.271 0-24.066 10.797-24.066 24.067-.001 13.269 10.795 24.065 24.066 24.065z"/><path d="M439.367 0H72.633c-21.78 0-39.5 17.72-39.5 39.5v433c0 21.78 17.72 39.5 39.5 39.5H91.9c4.143 0 7.5-3.357 7.5-7.5s-3.357-7.5-7.5-7.5H72.633c-13.51 0-24.5-10.99-24.5-24.5V172.383h415.734V472.5c0 13.51-10.99 24.5-24.5 24.5H121.899c-4.143 0-7.5 3.357-7.5 7.5s3.357 7.5 7.5 7.5h317.468c21.78 0 39.5-17.72 39.5-39.5v-433c0-21.78-17.72-39.5-39.5-39.5zM48.133 157.383V39.5c0-13.51 10.99-24.5 24.5-24.5h366.734c13.51 0 24.5 10.99 24.5 24.5v117.883z"/><path d="M430.233 49.7h-76.399c-4.143 0-7.5 3.357-7.5 7.5s3.357 7.5 7.5 7.5h76.399c.275 0 .5.225.5.5v58.55c0 .275-.225.5-.5.5H81.767a.501.501 0 01-.5-.5V65.2c0-.275.225-.5.5-.5h242.067c4.143 0 7.5-3.357 7.5-7.5s-3.357-7.5-7.5-7.5H81.767c-8.547 0-15.5 6.953-15.5 15.5v58.55c0 8.547 6.953 15.5 15.5 15.5h348.467c8.547 0 15.5-6.953 15.5-15.5V65.2c-.001-8.547-6.954-15.5-15.501-15.5z"/></svg>