<svg height="512" viewBox="0 0 64 64" width="512" xmlns="http://www.w3.org/2000/svg" data-name="File management"><path d="M25 7h36v54H25z" fill="#ffe027"/><path d="M57 57H15V3h30l12 13z" fill="#ffe027"/><path d="M57 16H45V3z" fill="#ffcd25"/><circle cx="19" cy="37" fill="#23be99" r="16"/><path d="M12 34l-4 5 9 7 13-12-4-5-9 9z" fill="#fff"/><path d="M61 6H49.13l-3.4-3.68A.99.99 0 0045 2H15a1 1 0 00-1 1v17.75a17 17 0 000 32.5V57a1 1 0 001 1h9v3a1 1 0 001 1h36a1 1 0 001-1V7a1 1 0 00-1-1zm-15-.44L54.72 15H46zM4 37a15 15 0 1115 15A15.018 15.018 0 014 37zm12 19v-2.28a17.432 17.432 0 003 .28 17 17 0 000-34 17.432 17.432 0 00-3 .28V4h28v12a1 1 0 001 1h11v39zm44 4H26v-2h31a1 1 0 001-1V16a.977.977 0 00-.27-.68L50.98 8H60z"/><path d="M20 7h6v2h-6zm9 0h12v2H29zm-9 5h21v2H20zm10.781 21.375l-4-5a1 1 0 00-.726-.375 1.031 1.031 0 00-.762.292l-8.367 8.368-4.3-3.441a1 1 0 00-1.406.156l-4 5a1 1 0 00.167 1.415l9 7a1 1 0 001.292-.055l13-12a1 1 0 00.102-1.36zM16.945 44.69l-7.531-5.857 2.742-3.427 4.219 3.375a1 1 0 001.332-.074l8.21-8.21 2.72 3.4z"/></svg>