<svg xmlns="http://www.w3.org/2000/svg" viewBox="0 0 512 512"><path d="M503.172 17.655H105.931v379.586h397.241a8.829 8.829 0 008.828-8.828V26.483a8.829 8.829 0 00-8.828-8.828z" fill="#ff4b4b"/><ellipse cx="105.931" cy="66.207" rx="44.138" ry="13.241" fill="none" stroke="#464646" stroke-width="16" stroke-linecap="round" stroke-linejoin="round" stroke-miterlimit="10"/><path d="M0 66.207v379.586c0 26.814 47.427 48.552 105.931 48.552s105.931-21.738 105.931-48.552V66.207H0z" fill="#ff4b4b"/><path d="M88.276 66.207H0v379.586c0 24.051 38.195 43.964 88.276 47.823V66.207z" fill="#c83741"/><ellipse cx="105.931" cy="66.207" rx="105.931" ry="48.552" fill="#ff6969"/><ellipse cx="105.931" cy="66.207" rx="52.966" ry="22.069" fill="#ff4b4b"/><path d="M211.862 66.207v331.034h17.655V66.207c0-19.597-14.409-36.643-38.042-48.552h-85.544c58.505 0 105.931 21.737 105.931 48.552z" fill="#c83741"/><path d="M503.172 17.655h-35.31v379.586h35.31a8.829 8.829 0 008.828-8.828V26.483a8.829 8.829 0 00-8.828-8.828zM370.767 362.104a8.827 8.827 0 01-6.112-2.457c-7.776-7.457-11.552-15.871-11.552-25.716s3.776-18.259 11.543-25.707c3.526-3.371 9.112-3.25 12.483.258 3.371 3.518 3.258 9.112-.258 12.483-4.224 4.052-6.112 8.052-6.112 12.966s1.888 8.914 6.121 12.974c3.518 3.371 3.629 8.966.258 12.483a8.82 8.82 0 01-6.371 2.716zm26.483-56.465a8.816 8.816 0 01-7.371-3.957c-2.69-4.07-1.578-9.543 2.492-12.233 9.863-6.518 13.698-11.802 13.698-18.828 0-6.216-2.948-10.957-10.189-16.371-3.905-2.914-4.707-8.448-1.784-12.353a8.811 8.811 0 0112.353-1.784c7.414 5.543 17.276 14.732 17.276 30.508 0 17.069-11.552 26.897-21.612 33.551a8.79 8.79 0 01-4.863 1.467zm-23.206-67.277a8.772 8.772 0 01-5.5-1.931c-10.389-8.302-15.441-17.811-15.441-29.087 0-11.172 4.957-20.604 15.155-28.836 3.794-3.078 9.354-2.457 12.414 1.327 3.06 3.794 2.465 9.345-1.327 12.414-6.017 4.862-8.586 9.37-8.586 15.095 0 5.793 2.63 10.362 8.802 15.293a8.825 8.825 0 011.388 12.405 8.809 8.809 0 01-6.905 3.32zm26.887-61.81a8.813 8.813 0 01-7.104-3.577c-2.905-3.923-2.069-9.449 1.845-12.345 7.388-5.457 10.397-10.241 10.397-16.491 0-5.319-2.138-9.483-7.164-13.922-3.656-3.224-4-8.802-.767-12.457 3.224-3.656 8.81-3.991 12.457-.767 8.836 7.801 13.129 16.681 13.129 27.147 0 15.871-10.017 25.112-17.551 30.681a8.779 8.779 0 01-5.242 1.731zm-23.008-61.785a8.802 8.802 0 01-5.017-1.569c-8.5-5.879-19.802-15.629-19.802-32.31 0-17.043 11.552-26.871 21.612-33.526a8.81 8.81 0 0112.233 2.492c2.69 4.07 1.578 9.543-2.492 12.233-9.862 6.517-13.698 11.793-13.698 18.802 0 6.733 3.423 11.724 12.199 17.793a8.826 8.826 0 01-5.035 16.085zM264.836 362.104a8.827 8.827 0 01-6.112-2.457c-7.776-7.457-11.552-15.871-11.552-25.716s3.776-18.259 11.543-25.707a8.842 8.842 0 0112.483.258c3.371 3.518 3.259 9.112-.258 12.483-4.224 4.052-6.112 8.052-6.112 12.966s1.888 8.914 6.121 12.974c3.518 3.371 3.629 8.966.258 12.483a8.82 8.82 0 01-6.371 2.716zm26.483-56.465a8.816 8.816 0 01-7.371-3.957c-2.689-4.07-1.578-9.543 2.492-12.233 9.863-6.518 13.698-11.802 13.698-18.828 0-6.216-2.948-10.957-10.189-16.371-3.905-2.914-4.707-8.448-1.784-12.353 2.914-3.905 8.448-4.715 12.353-1.784 7.414 5.543 17.276 14.732 17.276 30.508 0 17.069-11.552 26.897-21.612 33.551a8.79 8.79 0 01-4.863 1.467zm-23.206-67.277a8.772 8.772 0 01-5.5-1.931c-10.389-8.302-15.441-17.811-15.441-29.087 0-11.172 4.957-20.604 15.155-28.836 3.794-3.078 9.345-2.457 12.414 1.327 3.06 3.794 2.465 9.345-1.327 12.414-6.017 4.862-8.586 9.37-8.586 15.095 0 5.793 2.63 10.362 8.802 15.293a8.825 8.825 0 011.388 12.405 8.81 8.81 0 01-6.905 3.32zM295 176.552a8.813 8.813 0 01-7.104-3.577c-2.905-3.923-2.069-9.449 1.845-12.345 7.388-5.457 10.397-10.241 10.397-16.491 0-5.319-2.138-9.483-7.164-13.922-3.656-3.224-4-8.802-.767-12.457 3.224-3.656 8.81-3.991 12.457-.767 8.836 7.801 13.129 16.681 13.129 27.147 0 15.871-10.017 25.112-17.551 30.681a8.78 8.78 0 01-5.242 1.731zm-23.009-61.785a8.802 8.802 0 01-5.017-1.569c-8.5-5.879-19.801-15.629-19.801-32.31 0-17.043 11.552-26.871 21.612-33.526 4.061-2.698 9.535-1.587 12.233 2.492 2.689 4.07 1.578 9.543-2.492 12.233-9.862 6.517-13.698 11.793-13.698 18.802 0 6.733 3.423 11.724 12.199 17.793a8.826 8.826 0 01-5.036 16.085zM129.13 450.354a8.777 8.777 0 01-6.103-2.449c-7.776-7.448-11.561-15.862-11.561-25.716 0-9.845 3.776-18.259 11.543-25.707 3.526-3.362 9.112-3.25 12.483.258 3.371 3.518 3.258 9.112-.258 12.483-4.224 4.052-6.112 8.052-6.112 12.966s1.888 8.914 6.112 12.957c3.526 3.38 3.647 8.966.276 12.483a8.821 8.821 0 01-6.38 2.725zm26.483-56.457a8.816 8.816 0 01-7.371-3.957 8.825 8.825 0 012.492-12.233c9.854-6.526 13.698-11.81 13.698-18.836 0-6.216-2.948-10.957-10.189-16.353a8.84 8.84 0 01-1.793-12.362c2.922-3.896 8.448-4.698 12.362-1.793 7.414 5.543 17.276 14.724 17.276 30.508 0 17.06-11.552 26.897-21.612 33.56a8.804 8.804 0 01-4.863 1.466zm-23.208-67.276a8.772 8.772 0 01-5.5-1.931c-10.388-8.301-15.439-17.811-15.439-29.086 0-11.172 4.957-20.604 15.155-28.836 3.794-3.078 9.345-2.457 12.414 1.327 3.06 3.794 2.465 9.345-1.327 12.414-6.017 4.862-8.586 9.37-8.586 15.095 0 5.793 2.63 10.362 8.802 15.293a8.825 8.825 0 011.388 12.405 8.819 8.819 0 01-6.907 3.319zm26.889-61.81a8.823 8.823 0 01-7.112-3.586c-2.897-3.923-2.06-9.449 1.863-12.345 7.38-5.449 10.388-10.225 10.388-16.491 0-5.319-2.138-9.483-7.155-13.906-3.656-3.224-4.009-8.802-.785-12.457 3.224-3.663 8.819-4 12.457-.785 8.845 7.794 13.138 16.672 13.138 27.147 0 15.896-10.017 25.129-17.56 30.698a8.798 8.798 0 01-5.234 1.725zm-23.009-61.785a8.802 8.802 0 01-5.017-1.569c-8.5-5.879-19.801-15.629-19.801-32.31 0-17.043 11.552-26.871 21.612-33.526 4.061-2.698 9.535-1.587 12.233 2.492 2.69 4.07 1.578 9.543-2.492 12.233-9.863 6.517-13.698 11.794-13.698 18.802 0 6.733 3.423 11.724 12.199 17.793a8.826 8.826 0 01-5.036 16.085z" fill="#ffdc78"/><path d="M29.638 450.354a8.817 8.817 0 01-7.034-3.482c-5.543-7.285-8.242-15.362-8.242-24.681s2.698-17.397 8.242-24.681c2.957-3.88 8.491-4.638 12.371-1.681a8.833 8.833 0 011.681 12.371c-3.207 4.215-4.638 8.526-4.638 13.992s1.431 9.775 4.638 13.992a8.833 8.833 0 01-1.681 12.371 8.794 8.794 0 01-5.337 1.799zm19.284-56.457a8.818 8.818 0 01-6.535-2.888 8.839 8.839 0 01.595-12.474c6.164-5.594 9.983-10.836 9.983-19.663 0-6.802-2.173-11.801-7.5-17.267a8.825 8.825 0 01.156-12.483c3.491-3.396 9.095-3.336 12.483.156 5.369 5.508 12.516 14.577 12.516 29.594 0 16.319-8.423 26.06-15.758 32.733a8.811 8.811 0 01-5.94 2.292zm-16.897-67.276a8.773 8.773 0 01-6.517-2.879c-7.5-8.215-11.147-17.422-11.147-28.138 0-10.612 3.577-19.733 10.931-27.88 3.276-3.629 8.845-3.896 12.466-.638a8.824 8.824 0 01.638 12.466c-4.474 4.957-6.379 9.759-6.379 16.052 0 6.37 1.956 11.224 6.526 16.242a8.814 8.814 0 01-.569 12.466 8.753 8.753 0 01-5.949 2.309zm19.587-61.81a8.795 8.795 0 01-6.198-2.543c-3.474-3.423-3.509-9.009-.086-12.483 5.422-5.508 7.638-10.543 7.638-17.397 0-5.802-1.655-10.406-5.379-14.905-3.104-3.758-2.569-9.327 1.19-12.431 3.767-3.095 9.327-2.552 12.431 1.19 6.336 7.682 9.414 16.234 9.414 26.148 0 15.129-7.258 24.251-12.724 29.793a8.8 8.8 0 01-6.286 2.628zm-16.758-61.785a8.802 8.802 0 01-6.078-2.422c-6.189-5.87-14.414-15.518-14.414-31.457 0-16.301 8.423-26.044 15.767-32.698 3.604-3.258 9.19-3.017 12.466.604 3.276 3.612 3.009 9.19-.604 12.466-6.155 5.594-9.974 10.828-9.974 19.629 0 8.457 3.561 13.578 8.914 18.646 3.534 3.353 3.681 8.94.328 12.483a8.81 8.81 0 01-6.405 2.749z" fill="#ffb450"/><path d="M401.707 41.793a8.795 8.795 0 005.992 2.345c2.37 0 4.741-.957 6.483-2.836 6.327-6.845 9.543-14.802 9.543-23.647H406.07c0 4.439-1.5 8.034-4.853 11.663-3.311 3.579-3.096 9.165.49 12.475zm-105.931 0a8.795 8.795 0 005.992 2.345c2.37 0 4.742-.957 6.483-2.836 6.327-6.845 9.543-14.802 9.543-23.647h-17.655c0 4.439-1.5 8.034-4.853 11.663-3.311 3.579-3.096 9.165.49 12.475zm.405 321.888c-4.07-2.69-9.551-1.578-12.233 2.492-2.689 4.061-1.578 9.543 2.492 12.233 9.854 6.526 13.698 11.81 13.698 18.836h17.655c0-17.061-11.551-26.897-21.612-33.561zm105.931 0c-4.077-2.69-9.543-1.578-12.233 2.492a8.825 8.825 0 002.492 12.233c9.854 6.526 13.698 11.81 13.698 18.836h17.655c0-17.061-11.551-26.897-21.612-33.561zm-237.75-256.992c-.172 4.076-1.634 7.48-4.783 10.889a8.821 8.821 0 00.491 12.474 8.795 8.795 0 005.992 2.345c2.37 0 4.742-.957 6.483-2.836 6.327-6.845 9.543-14.802 9.543-23.647 0-1.956-.76-3.669-1.835-5.132-4.862 2.195-10.182 4.172-15.891 5.907z" fill="#ffdc78"/><path d="M52.821 108.17c-.323 3.895-1.454 7.288-3.597 10.46-2.724 4.043-1.655 9.535 2.379 12.258a8.832 8.832 0 004.931 1.508 8.827 8.827 0 007.328-3.887c3.449-5.109 5.54-10.601 6.356-16.64-6.077-.999-11.893-2.233-17.397-3.699z" fill="#ffb450"/><path d="M160.474 451.94c-4.07-2.69-9.543-1.578-12.233 2.492a8.825 8.825 0 002.492 12.233c9.854 6.526 13.698 11.81 13.698 18.836 0 .254.124.467.145.715 6.165-1.882 11.858-4.056 17.021-6.474-2.255-13.576-12.256-21.929-21.123-27.802z" fill="#ffdc78"/><path d="M54.862 452.768c-3.612-3.267-9.19-3.017-12.474.595a8.839 8.839 0 00.595 12.474c6.164 5.594 9.983 10.836 9.983 19.663 0 .86.26 1.636.489 2.422 4.77 1.248 9.799 2.306 14.996 3.208 1.3-1.537 2.17-3.457 2.17-5.63 0-16.318-8.423-26.059-15.759-32.732z" fill="#ffb450"/></svg>