<svg height="512" viewBox="0 0 510.181 510.181" width="512" xmlns="http://www.w3.org/2000/svg"><path d="M332.614 296.425L136.948 7.501l-.211.143c-27.526 18.641-34.728 56.067-16.087 83.592L282.564 330.32l28.029 41.375 46.879-36.016z" fill="#e5e1e5"/><path d="M270.187 312.044l36.502-53.9-66.695-98.484-36.503 53.901z" fill="#d7d0d6"/><path d="M374.021 8.034l-.788-.534-195.667 288.925-16.001 28.704 43.695 31.42 22.357-26.229L389.922 90.658c18.425-27.207 11.306-64.199-15.901-82.624z" fill="#efedef"/><path d="M373.35 318.829c47.18 3.99 84.22 43.54 84.22 91.75 0 50.87-41.23 92.1-92.09 92.1-50.87 0-92.1-41.23-92.1-92.1 0-14.93 3.56-29.03 9.86-41.5l-9.89-14.61c-4.59-6.78-2.82-16 3.96-20.59l60.56-41.01c6.78-4.59 15.99-2.82 20.59 3.96zm44.22 91.75c0-28.77-23.32-52.09-52.09-52.09-28.78 0-52.1 23.32-52.1 52.09 0 28.78 23.32 52.1 52.1 52.1 28.77 0 52.09-23.32 52.09-52.1zm-324.96 0c0 28.78 23.32 52.1 52.09 52.1 28.78 0 52.1-23.32 52.1-52.1 0-28.77-23.32-52.09-52.1-52.09-28.77 0-52.09 23.32-52.09 52.09zm140.26-76.7c6.78 4.59 8.55 13.81 3.96 20.59l-9.89 14.61c6.3 12.47 9.86 26.57 9.86 41.5 0 50.87-41.23 92.1-92.1 92.1-50.86 0-92.09-41.23-92.09-92.1 0-48.21 37.04-87.76 84.22-91.75l14.89-22c4.6-6.78 13.81-8.55 20.59-3.96z" fill="#6cf5c2"/><path d="M246.479 341.934c-1.053-5.474-4.06-10.239-8.479-13.571l32.735-48.337a7.502 7.502 0 00-12.42-8.412l-32.704 48.29-37.63-25.484L375.007 18.256c19.379 17.023 23.537 46.293 8.704 68.197L276.567 244.665a7.501 7.501 0 0012.42 8.412L396.131 94.864c20.714-30.588 12.683-72.325-17.905-93.04l-.788-.534a7.5 7.5 0 00-10.415 2.004L175.529 286.058c-10.089-6.097-23.331-3.303-30.015 6.567l-12.935 19.1c-23.392 2.842-44.959 13.874-61.062 31.311-17.031 18.441-26.41 42.43-26.41 67.548 0 54.918 44.679 99.597 99.597 99.597s99.597-44.679 99.597-99.597c0-14.279-2.939-28.002-8.743-40.858l7.484-11.052a22.185 22.185 0 003.437-16.74zm-15.857 8.328l-9.896 14.612a7.5 7.5 0 00-.483 7.59c6.011 11.886 9.058 24.71 9.058 38.119 0 46.647-37.95 84.597-84.597 84.597s-84.597-37.95-84.597-84.597c0-21.334 7.966-41.709 22.43-57.371 14.383-15.574 33.889-25.132 54.925-26.914a7.498 7.498 0 005.577-3.268l14.896-21.995a7.325 7.325 0 016.077-3.216c1.413 0 2.842.407 4.098 1.258l55.292 37.445.01.007.007.004 5.246 3.553c3.343 2.267 4.222 6.831 1.957 10.176z"/><path d="M144.704 350.986c-32.862 0-59.598 26.735-59.598 59.597a59.424 59.424 0 009.205 31.804 7.5 7.5 0 1012.678-8.015 44.453 44.453 0 01-6.883-23.789c0-24.591 20.007-44.597 44.598-44.597s44.598 20.006 44.598 44.597-20.007 44.598-44.598 44.598a44.361 44.361 0 01-16.585-3.2 7.5 7.5 0 00-5.584 13.922 59.3 59.3 0 0022.169 4.278c32.862 0 59.598-26.735 59.598-59.598-.001-32.861-26.736-59.597-59.598-59.597zm85.848-191.893a7.494 7.494 0 0010.416 2.004 7.502 7.502 0 002.004-10.416l-38.911-57.456a7.5 7.5 0 10-12.42 8.412z"/><path d="M194.049 212.994a7.492 7.492 0 006.217 3.295 7.501 7.501 0 006.203-11.707L126.86 87.03c-7.893-11.654-10.774-25.684-8.114-39.505 2.197-11.419 7.961-21.567 16.474-29.202l38.171 56.364a7.501 7.501 0 0012.42-8.412l-42.653-62.98a7.502 7.502 0 00-10.42-2.002l-.206.14c-14.972 10.139-25.099 25.501-28.516 43.257s.284 35.779 10.424 50.75zm244.615 130.042c-16.104-17.438-37.671-28.469-61.063-31.311l-12.935-19.1c-6.685-9.87-19.93-12.665-30.015-6.567l-18.52-27.348a7.498 7.498 0 00-10.415-2.004 7.501 7.501 0 00-2.005 10.416l18.487 27.299-37.63 25.484-4.94-7.294a7.5 7.5 0 00-12.42 8.412l4.972 7.341c-4.419 3.332-7.425 8.097-8.479 13.571a22.177 22.177 0 003.438 16.739l7.484 11.052c-5.804 12.856-8.743 26.579-8.743 40.858 0 54.918 44.679 99.597 99.597 99.597s99.597-44.679 99.597-99.597c0-25.118-9.379-49.107-26.41-67.548zm-73.187 152.145c-46.646 0-84.597-37.95-84.597-84.597 0-13.409 3.047-26.233 9.058-38.119a7.5 7.5 0 00-.483-7.59l-9.896-14.612c-2.266-3.345-1.387-7.91 1.958-10.175l5.246-3.553.007-.004.009-.007 55.294-37.445c3.343-2.265 7.907-1.388 10.174 1.958l14.896 21.995a7.503 7.503 0 005.577 3.268c21.036 1.782 40.542 11.34 54.925 26.914 14.464 15.662 22.43 36.037 22.43 57.371-.001 46.645-37.951 84.596-84.598 84.596z"/><path d="M365.477 350.986c-32.862 0-59.598 26.735-59.598 59.597s26.735 59.598 59.598 59.598 59.598-26.735 59.598-59.598c0-32.861-26.736-59.597-59.598-59.597zm0 104.195c-24.591 0-44.598-20.006-44.598-44.598 0-24.591 20.007-44.597 44.598-44.597s44.598 20.006 44.598 44.597c0 24.592-20.007 44.598-44.598 44.598zM247.084 234.666v4.745c0 4.142 3.357 7.5 7.5 7.5s7.5-3.358 7.5-7.5v-4.745a7.5 7.5 0 00-7.5-7.5 7.5 7.5 0 00-7.5 7.5z"/></svg>