<svg xmlns="http://www.w3.org/2000/svg" viewBox="0 0 512 512"><path d="M501.787 477.011v-.01c-1.873-3.097 27.018 26.177-463.15-464.062-1.459-1.459-3.049-2.603-4.721-3.444C22.55 3.721 7.71 11.673 7.71 25.743V486.29c0 10.008 8.114 18.112 18.122 18.112l460.314-.101c14.537 0 22.529-15.813 15.641-27.29zm-213.458-58.774l-182.906.041c-5.541 0-10.039-4.498-10.039-10.039V225.242c0-8.945 10.809-13.422 17.13-7.101L295.42 401.108c6.321 6.321 1.844 17.119-7.091 17.129z" fill="#ffb655"/><path d="M133.767 108.099c1.169 1.16-51.48-51.503-80.503-80.533l-1.996-1.996v422.225c0 10.008 8.114 18.112 18.122 18.112l421.993-.091c-53.206-53.223-303.489-303.589-357.616-357.717zm154.562 310.138l-182.906.041c-5.541 0-10.039-4.498-10.039-10.039V225.242c0-8.945 10.809-13.422 17.13-7.101L295.42 401.108c6.321 6.321 1.844 17.119-7.091 17.129z" fill="#ffc477"/><path d="M396.909 496.724l-371.081.081c-5.8 0-10.519-4.716-10.519-10.514V124.068a7.597 7.597 0 10-15.194 0v362.223C.114 500.467 11.649 512 25.83 512l371.083-.081a7.598 7.598 0 00-.004-15.195zm107.419-28.71L44.005 7.568C39.126 2.687 32.716 0 25.954 0 11.706 0 .114 11.549.114 25.745v67.933a7.597 7.597 0 1015.194 0V25.745c0-6.604 5.411-10.55 10.645-10.55 1.912 0 4.731.541 7.306 3.117l14.543 14.547-20.598 20.519c-4.78 4.762-1.386 12.979 5.362 12.979 5.479 0 6.019-3.861 25.98-22.754L82.736 67.8l-8.059 7.933a7.597 7.597 0 00-.085 10.744c2.934 2.981 7.744 3.038 10.743.085l8.144-8.016 24.245 24.251-20.589 20.511a7.598 7.598 0 0010.723 10.765l20.608-20.53 24.191 24.197-8.05 7.924a7.597 7.597 0 00-.085 10.744c2.934 2.981 7.744 3.038 10.743.085l8.134-8.007 24.245 24.252-20.58 20.501a7.598 7.598 0 0010.723 10.765l20.599-20.52 24.19 24.196-8.04 7.915a7.598 7.598 0 0010.66 10.829l8.124-7.997 24.245 24.251-20.571 20.492a7.598 7.598 0 0010.723 10.765l20.59-20.511 24.19 24.197-8.03 7.904a7.597 7.597 0 1010.659 10.829l8.114-7.987 24.245 24.251-20.562 20.482a7.598 7.598 0 0010.723 10.765l20.581-20.501 24.19 24.196-8.021 7.895a7.598 7.598 0 0010.66 10.829l8.105-7.978 24.394 24.4-20.553 20.473a7.598 7.598 0 0010.723 10.765l20.572-20.492 24.19 24.197-8.011 7.886a7.597 7.597 0 1010.659 10.829l8.096-7.969 24.245 24.251-20.542 20.463a7.598 7.598 0 0010.723 10.765l20.562-20.483 15.358 15.362c2.575 2.575 3.115 5.393 3.115 7.303 0 5.231-3.947 10.643-10.549 10.645l-58.85.013a7.597 7.597 0 00.004 15.194l58.85-.013c14.193-.003 25.74-11.595 25.74-25.839.005-6.754-2.682-13.164-7.559-18.042z"/><path d="M95.382 294.506a7.597 7.597 0 007.597-7.597v-67.548l54.502 54.516a7.597 7.597 0 0010.744.001 7.597 7.597 0 00.001-10.745l-67.471-67.49a7.598 7.598 0 00-12.97 5.372v85.894a7.597 7.597 0 007.597 7.597zm103.14 123.75a7.597 7.597 0 007.597 7.596h.002l106.421-.023a7.597 7.597 0 005.371-12.968l-128.2-128.236a7.598 7.598 0 00-10.745 10.744l115.238 115.268-88.088.02a7.597 7.597 0 00-7.596 7.599zm-110.737.022a7.595 7.595 0 007.598 7.598h.002l80.347-.018a7.597 7.597 0 00-.002-15.194h-.002l-72.747.016v-93.381a7.597 7.597 0 00-7.597-7.597 7.597 7.597 0 00-7.597 7.597v100.979z"/></svg>