<svg height="512" viewBox="0 0 128 128" width="512" xmlns="http://www.w3.org/2000/svg"><path d="M70.234 33.756v36.08H37.04a18.04 18.04 0 010-36.08z" fill="#fd3a69"/><path d="M55.96 99.134a4.264 4.264 0 01-4.24 4.68H32.86a4.487 4.487 0 01-4.4-5.37l.84-4.22 4.85-24.39h18.4l-2.43 12.18-1.85 9.31a3.329 3.329 0 003.27 3.97 4.386 4.386 0 014.42 3.84z" fill="#fd3a69"/><path d="M48.26 30.406v3.35H37.04a17.812 17.812 0 00-9.64 2.8l-5.35-7.89a2.865 2.865 0 012.37-4.48h17.62a6.214 6.214 0 016.22 6.22z" fill="#fecd1a"/><path d="M103.188 44a7.8 7.8 0 00-7.588 6.046h-5.734a1.75 1.75 0 000 3.5H95.6A7.792 7.792 0 10103.188 44zm0 12.091a4.3 4.3 0 114.3-4.3 4.3 4.3 0 01-4.3 4.301z" fill="#9d0191"/><path d="M64.692 41.187a1.75 1.75 0 00-1.75-1.75h-10.32a1.75 1.75 0 000 3.5h10.32a1.75 1.75 0 001.75-1.75zm-1.75 4.919h-8.32a1.75 1.75 0 000 3.5h8.32a1.75 1.75 0 000-3.5z" fill="#fff8cd"/><path d="M55.38 82.014h-5.26l2.43-12.18h4.31l1.41 8.8a2.926 2.926 0 01-2.89 3.38z" fill="#9d0191"/><path d="M70.234 37.647h8.4a2.567 2.567 0 012.566 2.566v23.166a2.567 2.567 0 01-2.567 2.567h-8.4v-28.3l.001.001z" fill="#fc852d"/><path d="M87.299 61.751h-6.1v-19.91h6.1a2.567 2.567 0 012.567 2.566v14.777a2.567 2.567 0 01-2.567 2.567z" fill="#fecd1a"/><g fill="#141063"><path d="M30.912 86.115a1.748 1.748 0 002.058-1.374l.136-.687a1.749 1.749 0 10-3.431-.683l-.137.686a1.749 1.749 0 001.374 2.058z"/><path d="M103.188 44a7.8 7.8 0 00-7.588 6.046h-3.984v-5.638a4.322 4.322 0 00-4.316-4.317h-4.362a4.316 4.316 0 00-4.305-4.191h-6.649v-2.144a1.75 1.75 0 00-1.75-1.75H50.01v-1.6a7.979 7.979 0 00-7.97-7.97H24.42a4.615 4.615 0 00-3.82 7.212l4.386 6.469a19.762 19.762 0 007.155 34.838l-.863 4.345a1.751 1.751 0 003.434.683l.875-4.4h14.828l-.315 1.592-1.695 8.5v.028l-1.848 9.282a5.078 5.078 0 004.986 6.063 2.628 2.628 0 012.675 2.252 2.516 2.516 0 01-2.5 2.766H32.86a2.735 2.735 0 01-2.683-3.278l1.023-5.14a1.75 1.75 0 00-3.433-.684L26.744 98.1a6.237 6.237 0 006.116 7.465h18.86a6.014 6.014 0 005.982-6.6 6.153 6.153 0 00-6.162-5.424 1.584 1.584 0 01-1.228-.582 1.544 1.544 0 01-.326-1.3l1.574-7.9h3.82A4.676 4.676 0 0060 78.357l-1.084-6.771h11.318a1.749 1.749 0 001.75-1.75V67.7h6.649a4.316 4.316 0 004.305-4.2H87.3a4.322 4.322 0 004.316-4.317v-5.637H95.6A7.792 7.792 0 10103.188 44zM23.431 26.531a1.091 1.091 0 01.989-.595h17.62a4.475 4.475 0 014.47 4.47v1.6h-9.47a19.631 19.631 0 00-9.1 2.226l-4.44-6.551a1.09 1.09 0 01-.069-1.15zm33.11 52.377a1.176 1.176 0 01-1.161 1.356h-3.123l1.693-8.5.035-.175h1.383zm11.943-10.822H36.99a16.289 16.289 0 01.05-32.578h31.444v32.58zm10.966-4.707a.817.817 0 01-.817.817h-6.649V39.4h6.649a.817.817 0 01.817.816zm8.666-4.194A.818.818 0 0187.3 60h-4.35V43.591h4.35a.818.818 0 01.816.817zm15.072-3.093a4.3 4.3 0 114.3-4.3 4.3 4.3 0 01-4.3 4.3z"/><path d="M62.942 39.437h-10.32a1.75 1.75 0 000 3.5h10.32a1.75 1.75 0 000-3.5zm0 6.669h-8.32a1.75 1.75 0 000 3.5h8.32a1.75 1.75 0 000-3.5z"/></g></svg>