<svg width="1918" height="18" fill="none" xmlns="http://www.w3.org/2000/svg"><path d="M1918 10.5h1.5v-3h-1.5v3zM15 7.5L0 .34v17.32l15-7.16v-3zm1895.51 0h-1.5v3h1.5v-3zm-14.99 3h1.5v-3h-1.5v3zm-14.98-3h-1.5v3h1.5v-3zm-14.99 3h1.5v-3h-1.5v3zm-14.98-3h-1.5v3h1.5v-3zm-14.98 3h1.5v-3h-1.5v3zm-14.99-3h-1.5v3h1.5v-3zm-14.98 3h1.5v-3h-1.5v3zm-14.99-3h-1.5v3h1.5v-3zm-14.98 3h1.5v-3h-1.5v3zm-14.99-3h-1.5v3h1.5v-3zm-14.98 3h1.5v-3h-1.5v3zm-14.98-3h-1.5v3h1.5v-3zm-14.99 3h1.5v-3h-1.5v3zm-14.98-3h-1.5v3h1.5v-3zm-14.99 3h1.5v-3h-1.5v3zm-14.98-3h-1.5v3h1.5v-3zm-14.99 3h1.5v-3h-1.5v3zm-14.98-3h-1.5v3h1.5v-3zm-14.99 3h1.5v-3h-1.5v3zm-14.98-3h-1.5v3h1.5v-3zm-14.98 3h1.5v-3h-1.5v3zm-14.99-3h-1.5v3h1.5v-3zm-14.98 3h1.5v-3h-1.5v3zm-14.99-3h-1.5v3h1.5v-3zm-14.98 3h1.5v-3h-1.5v3zm-14.99-3h-1.5v3h1.5v-3zm-14.98 3h1.5v-3h-1.5v3zm-14.98-3h-1.5v3h1.5v-3zm-14.99 3h1.5v-3h-1.5v3zm-14.98-3h-1.5v3h1.5v-3zm-14.99 3h1.5v-3h-1.5v3zm-14.98-3h-1.5v3h1.5v-3zm-14.99 3h1.5v-3h-1.5v3zm-14.98-3h-1.5v3h1.5v-3zm-14.99 3h1.5v-3h-1.5v3zm-14.98-3h-1.5v3h1.5v-3zm-14.98 3h1.5v-3h-1.5v3zm-14.99-3h-1.5v3h1.5v-3zm-14.98 3h1.5v-3h-1.5v3zm-14.99-3h-1.5v3h1.5v-3zm-14.98 3h1.5v-3h-1.5v3zm-14.99-3h-1.5v3h1.5v-3zm-14.98 3h1.5v-3h-1.5v3zm-14.98-3h-1.5v3h1.5v-3zm-14.99 3h1.5v-3h-1.5v3zm-14.98-3h-1.5v3h1.5v-3zm-14.99 3h1.5v-3h-1.5v3zm-14.98-3h-1.5v3h1.5v-3zm-14.99 3h1.5v-3h-1.5v3zm-14.98-3h-1.5v3h1.5v-3zm-14.99 3h1.5v-3h-1.5v3zm-14.98-3h-1.5v3h1.5v-3zm-14.98 3h1.5v-3h-1.5v3zm-14.99-3h-1.5v3h1.5v-3zm-14.98 3h1.5v-3h-1.5v3zm-14.99-3h-1.5v3h1.5v-3zm-14.98 3h1.5v-3h-1.5v3zm-14.99-3h-1.5v3h1.5v-3zm-14.98 3h1.5v-3h-1.5v3zm-14.98-3h-1.5v3h1.5v-3zm-14.989 3h1.5v-3h-1.5v3zm-14.984-3h-1.5v3h1.5v-3zm-14.985 3h1.5v-3h-1.5v3zm-14.984-3h-1.5v3h1.5v-3zm-14.985 3h1.5v-3h-1.5v3zm-14.984-3h-1.5v3h1.5v-3zm-14.984 3h1.5v-3h-1.5v3zm-14.985-3h-1.5v3h1.5v-3zm-14.984 3h1.5v-3h-1.5v3zm-14.984-3h-1.5v3h1.5v-3zm-14.985 3h1.5v-3h-1.5v3zm-14.984-3h-1.5v3h1.5v-3zm-14.985 3h1.5v-3h-1.5v3zm-14.984-3h-1.5v3h1.5v-3zm-14.984 3h1.5v-3h-1.5v3zm-14.985-3h-1.5v3h1.5v-3zm-14.984 3h1.5v-3h-1.5v3zm-14.984-3h-1.5v3h1.5v-3zm-14.985 3h1.5v-3h-1.5v3zm-14.984-3h-1.5v3h1.5v-3zm-14.985 3h1.5v-3h-1.5v3zm-14.984-3h-1.5v3h1.5v-3zm-14.984 3h1.5v-3h-1.5v3zm-14.985-3h-1.5v3h1.5v-3zm-14.984 3h1.5v-3h-1.5v3zm-14.984-3h-1.5v3h1.5v-3zm-14.985 3h1.5v-3h-1.5v3zm-14.984-3h-1.5v3h1.5v-3zm-14.985 3h1.5v-3h-1.5v3zm-14.984-3h-1.5v3h1.5v-3zm-14.984 3h1.5v-3h-1.5v3zm-14.985-3h-1.5v3h1.5v-3zm-14.984 3h1.5v-3h-1.5v3zm-14.984-3h-1.5v3h1.5v-3zm-14.985 3h1.5v-3h-1.5v3zm-14.984-3h-1.5v3h1.5v-3zm-14.985 3h1.5v-3h-1.5v3zm-14.984-3h-1.5v3h1.5v-3zm-14.984 3h1.5v-3h-1.5v3zm-14.985-3h-1.5v3h1.5v-3zm-14.984 3h1.5v-3h-1.5v3zm-14.984-3h-1.5v3h1.5v-3zm-14.985 3h1.5v-3h-1.5v3zm-14.984-3h-1.5v3h1.5v-3zm-14.985 3h1.5v-3h-1.5v3zm-14.984-3h-1.5v3h1.5v-3zm-14.984 3h1.5v-3h-1.5v3zm-14.985-3h-1.5v3h1.5v-3zm-14.984 3h1.5v-3h-1.5v3zm-14.985-3h-1.5v3h1.5v-3zm-14.984 3h1.5v-3h-1.5v3zm-14.984-3h-1.5v3h1.5v-3zm-14.985 3h1.5v-3h-1.5v3zm-14.984-3h-1.5v3h1.5v-3zm-14.984 3h1.5v-3h-1.5v3zm-14.985-3h-1.5v3h1.5v-3zm-14.984 3h1.5v-3h-1.5v3zm-14.985-3h-1.5v3h1.5v-3zm-14.984 3h1.5v-3h-1.5v3zm-14.984-3h-1.5v3h1.5v-3zm-14.985 3h1.5v-3h-1.5v3zm-14.984-3h-1.5v3h1.5v-3zm-14.984 3h1.5v-3h-1.5v3zm-14.985-3h-1.5v3h1.5v-3zm-14.984 3h1.5v-3h-1.5v3zm-14.985-3h-1.5v3h1.5v-3zm-14.984 3h1.5v-3h-1.5v3zM1918 7.5h-7.49v3h7.49v-3zm-22.48 0h-14.98v3h14.98v-3zm-29.97 0h-14.98v3h14.98v-3zm-29.96 0h-14.99v3h14.99v-3zm-29.97 0h-14.99v3h14.99v-3zm-29.97 0h-14.99v3h14.99v-3zm-29.97 0h-14.98v3h14.98v-3zm-29.97 0h-14.98v3h14.98v-3zm-29.97 0h-14.98v3h14.98v-3zm-29.97 0h-14.98v3h14.98v-3zm-29.97 0h-14.98v3h14.98v-3zm-29.96 0h-14.99v3h14.99v-3zm-29.97 0h-14.99v3h14.99v-3zm-29.97 0h-14.99v3h14.99v-3zm-29.97 0h-14.98v3h14.98v-3zm-29.97 0h-14.98v3h14.98v-3zm-29.97 0h-14.98v3h14.98v-3zm-29.97 0h-14.98v3h14.98v-3zm-29.97 0h-14.98v3h14.98v-3zm-29.96 0h-14.99v3h14.99v-3zm-29.97 0h-14.99v3h14.99v-3zm-29.97 0h-14.99v3h14.99v-3zm-29.97 0h-14.98v3h14.98v-3zm-29.97 0h-14.98v3h14.98v-3zm-29.97 0h-14.98v3h14.98v-3zm-29.97 0h-14.98v3h14.98v-3zm-29.97 0h-14.98v3h14.98v-3zm-29.96 0h-14.99v3h14.99v-3zm-29.97 0h-14.99v3h14.99v-3zm-29.97 0h-14.99v3h14.99v-3zm-29.97 0h-14.98v3h14.98v-3zm-29.969 0h-14.984v3h14.984v-3zm-29.969 0h-14.984v3h14.984v-3zm-29.969 0h-14.984v3h14.984v-3zm-29.968 0H891.57v3h14.985v-3zm-29.969 0h-14.984v3h14.984v-3zm-29.969 0h-14.984v3h14.984v-3zm-29.969 0h-14.984v3h14.984v-3zm-29.968 0h-14.985v3h14.985v-3zm-29.969 0h-14.984v3h14.984v-3zm-29.969 0h-14.984v3h14.984v-3zm-29.969 0h-14.984v3h14.984v-3zm-29.968 0H651.82v3h14.985v-3zm-29.969 0h-14.984v3h14.984v-3zm-29.969 0h-14.984v3h14.984v-3zm-29.969 0h-14.984v3h14.984v-3zm-29.968 0h-14.985v3h14.985v-3zm-29.969 0h-14.984v3h14.984v-3zm-29.969 0h-14.984v3h14.984v-3zm-29.969 0h-14.984v3h14.984v-3zm-29.968 0H412.07v3h14.985v-3zm-29.969 0h-14.984v3h14.984v-3zm-29.969 0h-14.984v3h14.984v-3zm-29.969 0h-14.984v3h14.984v-3zm-29.968 0h-14.985v3h14.985v-3zm-29.969 0h-14.985v3h14.985v-3zm-29.969 0h-14.984v3h14.984v-3zm-29.969 0h-14.984v3h14.984v-3zm-29.968 0H172.32v3h14.985v-3zm-29.969 0h-14.985v3h14.985v-3zm-29.969 0h-14.984v3h14.984v-3zm-29.969 0H82.414v3h14.984v-3zm-29.968 0H52.445v3H67.43v-3zm-29.97 0H22.477v3h14.985v-3z" fill="url(#paint0_linear)"/><defs><linearGradient id="paint0_linear" x1="1918" y1="9" x2="-92" y2="9" gradientUnits="userSpaceOnUse"><stop/><stop offset="1" stop-color="#fff"/></linearGradient></defs></svg>