<svg version="1.1" id="Слой_4" xmlns="http://www.w3.org/2000/svg" x="0" y="0" viewBox="0 0 1262.6 431.5" xml:space="preserve"><style>.st1{fill:#00a870}</style><path d="M178.6 105.7H91.4L7 334.6h78.6l8.2-26.8h82.4l8.2 26.8H263l-84.4-228.9zm-66.2 141.8l22.7-73.8 22.7 73.8h-45.4zm481.7-27.2c0-70.4 54.6-118.4 125.3-118.4 70.7 0 125.3 48.1 125.3 118.4 0 70.4-54.6 118.4-125.3 118.4-70.7.1-125.3-48-125.3-118.4zm180.3 0c0-31.9-21.6-57.3-54.9-57.3s-54.9 25.4-54.9 57.3 21.6 57.3 54.9 57.3c33.2.1 54.9-25.3 54.9-57.3zm95 114.3V105.7h173.7v60.4H938.8v22.7h101.9v60.4H938.8v85.4zm252.3 0V166.1h-61.4v-60.4h191.9v60.4h-61.1v168.5z" fill="#272a48"/><path class="st1" d="M275.2 106.7h75.6l40.7 54.6-36.2 51zm247.3 121.2l86.6-122.4h-72.9l-88.1 124.8 38.3 48.5 40.6 54.4h75.3z"/><path fill="#009fe3" d="M448.1 230.3L308.7 427.5h73l104.5-149.1z"/><path fill="#00a4b7" d="M391.4 161.2l38 49.3L341.5 335h-73.1z"/><path class="st1" d="M391.4 161.3L497 11h73.1L429.3 210.6z"/></svg>